<?xml version="1.0" encoding="UTF-8"?>
<svg xmlns="http://www.w3.org/2000/svg" xmlns:xlink="http://www.w3.org/1999/xlink" width="1000" height="1000" viewBox="0 0 1000 1000">
<path fill-rule="nonzero" fill="rgb(100%, 0%, 0%)" fill-opacity="1" d="M 504 500 C 504 494.667969 496 494.667969 496 500 C 496 505.332031 504 505.332031 504 500 "/>
<path fill="none" stroke-width="8" stroke-linecap="butt" stroke-linejoin="miter" stroke="rgb(100%, 0%, 0%)" stroke-opacity="1" stroke-miterlimit="10" d="M -500 500 L 500 500 L 500 -500 L -500 -500 L -500 500 " transform="matrix(1, 0, 0, -1, 500, 500)"/>
<path fill="none" stroke-width="10" stroke-linecap="butt" stroke-linejoin="miter" stroke="rgb(29.8%, 37.6%, 89.8%)" stroke-opacity="1" stroke-miterlimit="10" d="M 485.000967 -0.000558332 C 485.000665 173.272355 392.559199 333.385602 242.5 420.022321 C 92.440801 506.65904 -92.442071 506.659074 -242.500967 420.022879 C -392.559863 333.386684 -485.00127 173.273472 -485.000967 0.000558332 C -485.000665 -173.272355 -392.559199 -333.385602 -242.5 -420.022321 C -92.440801 -506.65904 92.442071 -506.659074 242.500967 -420.022879 C 392.559863 -333.386684 485.00127 -173.273472 485.000967 -0.000558332 " transform="matrix(0.866025, -0.5, -0.5, -0.866025, 500, 500)"/>
<path fill="none" stroke-width="6" stroke-linecap="butt" stroke-linejoin="miter" stroke="rgb(29.8%, 37.6%, 89.8%)" stroke-opacity="1" stroke-miterlimit="10" d="M -9.998932 0.500605 L 9.998932 0.500605 L 9.998932 20.498468 L -9.998932 20.498468 Z M -9.998932 0.500605 " transform="matrix(0.707107, -0.707107, -0.707107, -0.707107, 266.654762, 266.654762)"/>
<path fill="none" stroke-width="6" stroke-linecap="butt" stroke-linejoin="miter" stroke="rgb(29.8%, 37.6%, 89.8%)" stroke-opacity="1" stroke-miterlimit="10" d="M -0.000000000000071054 139.999514 L 69.713547 0.000658081 L -69.713547 0.000658081 Z M -0.000000000000071054 139.999514 " transform="matrix(0.707107, -0.707107, -0.707107, -0.707107, 266.654762, 266.654762)"/>
<path fill="none" stroke-width="10" stroke-linecap="butt" stroke-linejoin="miter" stroke="rgb(29.8%, 37.6%, 89.8%)" stroke-opacity="1" stroke-miterlimit="10" d="M -0.000000000000056843 40.002001 L 19.917762 -0.00201235 L -19.917762 -0.00201235 Z M -0.000000000000056843 40.002001 " transform="matrix(0.707107, -0.707107, -0.707107, -0.707107, 248.977093, 248.977093)"/>
<path fill="none" stroke-width="10" stroke-linecap="butt" stroke-linejoin="miter" stroke="rgb(29.8%, 37.6%, 89.8%)" stroke-opacity="1" stroke-miterlimit="10" d="M -0.000000000000085265 39.997729 L 19.917762 -0.000760767 L -19.917762 -0.000760767 Z M -0.000000000000085265 39.997729 " transform="matrix(0.707107, -0.707107, -0.707107, -0.707107, 220.692821, 220.692821)"/>
<path fill="none" stroke-width="10" stroke-linecap="butt" stroke-linejoin="miter" stroke="rgb(29.8%, 37.6%, 89.8%)" stroke-opacity="1" stroke-miterlimit="10" d="M -0.000000000000056843 39.99898 L 19.917762 0.000490815 L -19.917762 0.000490815 Z M -0.000000000000056843 39.99898 " transform="matrix(0.707107, -0.707107, -0.707107, -0.707107, 192.40855, 192.40855)"/>
<path fill="none" stroke-width="6" stroke-linecap="butt" stroke-linejoin="miter" stroke="rgb(29.8%, 37.6%, 89.8%)" stroke-opacity="1" stroke-miterlimit="10" d="M -10.000738 0.498275 L 10.000842 0.49723 L 10.001886 20.49881 L -9.999694 20.499854 Z M -10.000738 0.498275 " transform="matrix(0.965926, -0.258819, -0.258819, -0.965926, 414.589715, 181.244477)"/>
<path fill="none" stroke-width="6" stroke-linecap="butt" stroke-linejoin="miter" stroke="rgb(29.8%, 37.6%, 89.8%)" stroke-opacity="1" stroke-miterlimit="10" d="M 0.000208068 139.999154 L 69.711091 -0.00124819 L -69.711679 -0.00194109 Z M 0.000208068 139.999154 " transform="matrix(0.965926, -0.258819, -0.258819, -0.965926, 414.589715, 181.244477)"/>
<path fill="none" stroke-width="10" stroke-linecap="butt" stroke-linejoin="miter" stroke="rgb(29.8%, 37.6%, 89.8%)" stroke-opacity="1" stroke-miterlimit="10" d="M -0.00124732 39.998638 L 19.918737 -0.000438037 L -19.918602 0.0017032 Z M -0.00124732 39.998638 " transform="matrix(0.965926, -0.258819, -0.258819, -0.965926, 408.119239, 157.096332)"/>
<path fill="none" stroke-width="10" stroke-linecap="butt" stroke-linejoin="miter" stroke="rgb(29.8%, 37.6%, 89.8%)" stroke-opacity="1" stroke-miterlimit="10" d="M 0.000840782 40.001797 L 19.916041 -0.0000410197 L -19.917525 0.00108921 Z M 0.000840782 40.001797 " transform="matrix(0.965926, -0.258819, -0.258819, -0.965926, 397.766477, 118.459299)"/>
<path fill="none" stroke-width="10" stroke-linecap="butt" stroke-linejoin="miter" stroke="rgb(29.8%, 37.6%, 89.8%)" stroke-opacity="1" stroke-miterlimit="10" d="M 0.00191787 40.001183 L 19.917118 -0.000655014 L -19.916448 0.000475215 Z M 0.00191787 40.001183 " transform="matrix(0.965926, -0.258819, -0.258819, -0.965926, 387.413715, 79.822266)"/>
<path fill="none" stroke-width="6" stroke-linecap="butt" stroke-linejoin="miter" stroke="rgb(29.8%, 37.6%, 89.8%)" stroke-opacity="1" stroke-miterlimit="10" d="M -10.001853 0.501004 L 9.999727 0.502048 L 9.998683 20.503627 L -10.002897 20.502583 Z M -10.001853 0.501004 " transform="matrix(0.965926, 0.258819, 0.258819, -0.965926, 585.410285, 181.244477)"/>
<path fill="none" stroke-width="6" stroke-linecap="butt" stroke-linejoin="miter" stroke="rgb(29.8%, 37.6%, 89.8%)" stroke-opacity="1" stroke-miterlimit="10" d="M -0.000208068 139.999154 L 69.711679 -0.00194109 L -69.711091 -0.00124819 Z M -0.000208068 139.999154 " transform="matrix(0.965926, 0.258819, 0.258819, -0.965926, 585.410285, 181.244477)"/>
<path fill="none" stroke-width="10" stroke-linecap="butt" stroke-linejoin="miter" stroke="rgb(29.8%, 37.6%, 89.8%)" stroke-opacity="1" stroke-miterlimit="10" d="M 0.00124732 39.998638 L 19.918602 0.0017032 L -19.918737 -0.000438037 Z M 0.00124732 39.998638 " transform="matrix(0.965926, 0.258819, 0.258819, -0.965926, 591.880761, 157.096332)"/>
<path fill="none" stroke-width="10" stroke-linecap="butt" stroke-linejoin="miter" stroke="rgb(29.8%, 37.6%, 89.8%)" stroke-opacity="1" stroke-miterlimit="10" d="M -0.000840782 40.001797 L 19.917525 0.00108921 L -19.916041 -0.0000410197 Z M -0.000840782 40.001797 " transform="matrix(0.965926, 0.258819, 0.258819, -0.965926, 602.233523, 118.459299)"/>
<path fill="none" stroke-width="10" stroke-linecap="butt" stroke-linejoin="miter" stroke="rgb(29.8%, 37.6%, 89.8%)" stroke-opacity="1" stroke-miterlimit="10" d="M -0.00191787 40.001183 L 19.916448 0.000475215 L -19.917118 -0.000655014 Z M -0.00191787 40.001183 " transform="matrix(0.965926, 0.258819, 0.258819, -0.965926, 612.586285, 79.822266)"/>
<path fill="none" stroke-width="6" stroke-linecap="butt" stroke-linejoin="miter" stroke="rgb(29.8%, 37.6%, 89.8%)" stroke-opacity="1" stroke-miterlimit="10" d="M -9.998932 0.500605 L 9.998932 0.500605 L 9.998932 20.498468 L -9.998932 20.498468 Z M -9.998932 0.500605 " transform="matrix(0.707107, 0.707107, 0.707107, -0.707107, 733.345238, 266.654762)"/>
<path fill="none" stroke-width="6" stroke-linecap="butt" stroke-linejoin="miter" stroke="rgb(29.8%, 37.6%, 89.8%)" stroke-opacity="1" stroke-miterlimit="10" d="M -0.000000000000113687 139.999514 L 69.713547 0.000658081 L -69.713547 0.000658081 Z M -0.000000000000113687 139.999514 " transform="matrix(0.707107, 0.707107, 0.707107, -0.707107, 733.345238, 266.654762)"/>
<path fill="none" stroke-width="10" stroke-linecap="butt" stroke-linejoin="miter" stroke="rgb(29.8%, 37.6%, 89.8%)" stroke-opacity="1" stroke-miterlimit="10" d="M -0.000000000000113687 40.002001 L 19.917762 -0.00201235 L -19.917762 -0.00201235 Z M -0.000000000000113687 40.002001 " transform="matrix(0.707107, 0.707107, 0.707107, -0.707107, 751.022907, 248.977093)"/>
<path fill="none" stroke-width="10" stroke-linecap="butt" stroke-linejoin="miter" stroke="rgb(29.8%, 37.6%, 89.8%)" stroke-opacity="1" stroke-miterlimit="10" d="M -0.000000000000113687 39.997729 L 19.917762 -0.000760767 L -19.917762 -0.000760767 Z M -0.000000000000113687 39.997729 " transform="matrix(0.707107, 0.707107, 0.707107, -0.707107, 779.307179, 220.692821)"/>
<path fill="none" stroke-width="10" stroke-linecap="butt" stroke-linejoin="miter" stroke="rgb(29.8%, 37.6%, 89.8%)" stroke-opacity="1" stroke-miterlimit="10" d="M 0 39.99898 L 19.917762 0.000490815 L -19.917762 0.000490815 Z M 0 39.99898 " transform="matrix(0.707107, 0.707107, 0.707107, -0.707107, 807.59145, 192.40855)"/>
<path fill="none" stroke-width="6" stroke-linecap="butt" stroke-linejoin="miter" stroke="rgb(29.8%, 37.6%, 89.8%)" stroke-opacity="1" stroke-miterlimit="10" d="M -10.000738 0.498275 L 10.000842 0.49723 L 10.001886 20.49881 L -9.999694 20.499854 Z M -10.000738 0.498275 " transform="matrix(0.258819, 0.965926, 0.965926, -0.258819, 818.755523, 414.589715)"/>
<path fill="none" stroke-width="6" stroke-linecap="butt" stroke-linejoin="miter" stroke="rgb(29.8%, 37.6%, 89.8%)" stroke-opacity="1" stroke-miterlimit="10" d="M 0.000208068 139.999154 L 69.711091 -0.00124819 L -69.711679 -0.00194109 Z M 0.000208068 139.999154 " transform="matrix(0.258819, 0.965926, 0.965926, -0.258819, 818.755523, 414.589715)"/>
<path fill="none" stroke-width="10" stroke-linecap="butt" stroke-linejoin="miter" stroke="rgb(29.8%, 37.6%, 89.8%)" stroke-opacity="1" stroke-miterlimit="10" d="M -0.00124732 39.998638 L 19.918737 -0.000438037 L -19.918602 0.0017032 Z M -0.00124732 39.998638 " transform="matrix(0.258819, 0.965926, 0.965926, -0.258819, 842.903668, 408.119239)"/>
<path fill="none" stroke-width="10" stroke-linecap="butt" stroke-linejoin="miter" stroke="rgb(29.8%, 37.6%, 89.8%)" stroke-opacity="1" stroke-miterlimit="10" d="M 0.000840782 40.001797 L 19.916041 -0.0000410197 L -19.917525 0.00108921 Z M 0.000840782 40.001797 " transform="matrix(0.258819, 0.965926, 0.965926, -0.258819, 881.540701, 397.766477)"/>
<path fill="none" stroke-width="10" stroke-linecap="butt" stroke-linejoin="miter" stroke="rgb(29.8%, 37.6%, 89.8%)" stroke-opacity="1" stroke-miterlimit="10" d="M 0.00191787 40.001183 L 19.917118 -0.000655014 L -19.916448 0.000475215 Z M 0.00191787 40.001183 " transform="matrix(0.258819, 0.965926, 0.965926, -0.258819, 920.177734, 387.413715)"/>
<path fill="none" stroke-width="6" stroke-linecap="butt" stroke-linejoin="miter" stroke="rgb(29.8%, 37.6%, 89.8%)" stroke-opacity="1" stroke-miterlimit="10" d="M -10.001853 0.501004 L 9.999727 0.502048 L 9.998683 20.503627 L -10.002897 20.502583 Z M -10.001853 0.501004 " transform="matrix(-0.258819, 0.965926, 0.965926, 0.258819, 818.755523, 585.410285)"/>
<path fill="none" stroke-width="6" stroke-linecap="butt" stroke-linejoin="miter" stroke="rgb(29.8%, 37.6%, 89.8%)" stroke-opacity="1" stroke-miterlimit="10" d="M -0.000208068 139.999154 L 69.711679 -0.00194109 L -69.711091 -0.00124819 Z M -0.000208068 139.999154 " transform="matrix(-0.258819, 0.965926, 0.965926, 0.258819, 818.755523, 585.410285)"/>
<path fill="none" stroke-width="10" stroke-linecap="butt" stroke-linejoin="miter" stroke="rgb(29.8%, 37.6%, 89.8%)" stroke-opacity="1" stroke-miterlimit="10" d="M 0.00124732 39.998638 L 19.918602 0.0017032 L -19.918737 -0.000438037 Z M 0.00124732 39.998638 " transform="matrix(-0.258819, 0.965926, 0.965926, 0.258819, 842.903668, 591.880761)"/>
<path fill="none" stroke-width="10" stroke-linecap="butt" stroke-linejoin="miter" stroke="rgb(29.8%, 37.6%, 89.8%)" stroke-opacity="1" stroke-miterlimit="10" d="M -0.000840782 40.001797 L 19.917525 0.00108921 L -19.916041 -0.0000410197 Z M -0.000840782 40.001797 " transform="matrix(-0.258819, 0.965926, 0.965926, 0.258819, 881.540701, 602.233523)"/>
<path fill="none" stroke-width="10" stroke-linecap="butt" stroke-linejoin="miter" stroke="rgb(29.8%, 37.6%, 89.8%)" stroke-opacity="1" stroke-miterlimit="10" d="M -0.00191787 40.001183 L 19.916448 0.000475215 L -19.917118 -0.000655014 Z M -0.00191787 40.001183 " transform="matrix(-0.258819, 0.965926, 0.965926, 0.258819, 920.177734, 612.586285)"/>
<path fill="none" stroke-width="6" stroke-linecap="butt" stroke-linejoin="miter" stroke="rgb(29.8%, 37.6%, 89.8%)" stroke-opacity="1" stroke-miterlimit="10" d="M -9.998932 0.500605 L 9.998932 0.500605 L 9.998932 20.498468 L -9.998932 20.498468 Z M -9.998932 0.500605 " transform="matrix(-0.707107, 0.707107, 0.707107, 0.707107, 733.345238, 733.345238)"/>
<path fill="none" stroke-width="6" stroke-linecap="butt" stroke-linejoin="miter" stroke="rgb(29.8%, 37.6%, 89.8%)" stroke-opacity="1" stroke-miterlimit="10" d="M 0.000000000000085265 139.999514 L 69.713547 0.000658081 L -69.713547 0.000658081 Z M 0.000000000000085265 139.999514 " transform="matrix(-0.707107, 0.707107, 0.707107, 0.707107, 733.345238, 733.345238)"/>
<path fill="none" stroke-width="10" stroke-linecap="butt" stroke-linejoin="miter" stroke="rgb(29.8%, 37.6%, 89.8%)" stroke-opacity="1" stroke-miterlimit="10" d="M 0.000000000000085265 40.002001 L 19.917762 -0.00201235 L -19.917762 -0.00201235 Z M 0.000000000000085265 40.002001 " transform="matrix(-0.707107, 0.707107, 0.707107, 0.707107, 751.022907, 751.022907)"/>
<path fill="none" stroke-width="10" stroke-linecap="butt" stroke-linejoin="miter" stroke="rgb(29.8%, 37.6%, 89.8%)" stroke-opacity="1" stroke-miterlimit="10" d="M 0.000000000000085265 39.997729 L 19.917762 -0.000760767 L -19.917762 -0.000760767 Z M 0.000000000000085265 39.997729 " transform="matrix(-0.707107, 0.707107, 0.707107, 0.707107, 779.307179, 779.307179)"/>
<path fill="none" stroke-width="10" stroke-linecap="butt" stroke-linejoin="miter" stroke="rgb(29.8%, 37.6%, 89.8%)" stroke-opacity="1" stroke-miterlimit="10" d="M -0.000000000000028422 39.99898 L 19.917762 0.000490815 L -19.917762 0.000490815 Z M -0.000000000000028422 39.99898 " transform="matrix(-0.707107, 0.707107, 0.707107, 0.707107, 807.59145, 807.59145)"/>
<path fill="none" stroke-width="6" stroke-linecap="butt" stroke-linejoin="miter" stroke="rgb(29.8%, 37.6%, 89.8%)" stroke-opacity="1" stroke-miterlimit="10" d="M -10.000738 0.498275 L 10.000842 0.49723 L 10.001886 20.49881 L -9.999694 20.499854 Z M -10.000738 0.498275 " transform="matrix(-0.965926, 0.258819, 0.258819, 0.965926, 585.410285, 818.755523)"/>
<path fill="none" stroke-width="6" stroke-linecap="butt" stroke-linejoin="miter" stroke="rgb(29.8%, 37.6%, 89.8%)" stroke-opacity="1" stroke-miterlimit="10" d="M 0.000208068 139.999154 L 69.711091 -0.00124819 L -69.711679 -0.00194109 Z M 0.000208068 139.999154 " transform="matrix(-0.965926, 0.258819, 0.258819, 0.965926, 585.410285, 818.755523)"/>
<path fill="none" stroke-width="10" stroke-linecap="butt" stroke-linejoin="miter" stroke="rgb(29.8%, 37.6%, 89.8%)" stroke-opacity="1" stroke-miterlimit="10" d="M -0.00124732 39.998638 L 19.918737 -0.000438037 L -19.918602 0.0017032 Z M -0.00124732 39.998638 " transform="matrix(-0.965926, 0.258819, 0.258819, 0.965926, 591.880761, 842.903668)"/>
<path fill="none" stroke-width="10" stroke-linecap="butt" stroke-linejoin="miter" stroke="rgb(29.8%, 37.6%, 89.8%)" stroke-opacity="1" stroke-miterlimit="10" d="M 0.000840782 40.001797 L 19.916041 -0.0000410197 L -19.917525 0.00108921 Z M 0.000840782 40.001797 " transform="matrix(-0.965926, 0.258819, 0.258819, 0.965926, 602.233523, 881.540701)"/>
<path fill="none" stroke-width="10" stroke-linecap="butt" stroke-linejoin="miter" stroke="rgb(29.8%, 37.6%, 89.8%)" stroke-opacity="1" stroke-miterlimit="10" d="M 0.00191787 40.001183 L 19.917118 -0.000655014 L -19.916448 0.000475215 Z M 0.00191787 40.001183 " transform="matrix(-0.965926, 0.258819, 0.258819, 0.965926, 612.586285, 920.177734)"/>
<path fill="none" stroke-width="6" stroke-linecap="butt" stroke-linejoin="miter" stroke="rgb(29.8%, 37.6%, 89.8%)" stroke-opacity="1" stroke-miterlimit="10" d="M -10.001853 0.501004 L 9.999727 0.502048 L 9.998683 20.503627 L -10.002897 20.502583 Z M -10.001853 0.501004 " transform="matrix(-0.965926, -0.258819, -0.258819, 0.965926, 414.589715, 818.755523)"/>
<path fill="none" stroke-width="6" stroke-linecap="butt" stroke-linejoin="miter" stroke="rgb(29.8%, 37.6%, 89.8%)" stroke-opacity="1" stroke-miterlimit="10" d="M -0.000208068 139.999154 L 69.711679 -0.00194109 L -69.711091 -0.00124819 Z M -0.000208068 139.999154 " transform="matrix(-0.965926, -0.258819, -0.258819, 0.965926, 414.589715, 818.755523)"/>
<path fill="none" stroke-width="10" stroke-linecap="butt" stroke-linejoin="miter" stroke="rgb(29.8%, 37.6%, 89.8%)" stroke-opacity="1" stroke-miterlimit="10" d="M 0.00124732 39.998638 L 19.918602 0.0017032 L -19.918737 -0.000438037 Z M 0.00124732 39.998638 " transform="matrix(-0.965926, -0.258819, -0.258819, 0.965926, 408.119239, 842.903668)"/>
<path fill="none" stroke-width="10" stroke-linecap="butt" stroke-linejoin="miter" stroke="rgb(29.8%, 37.6%, 89.8%)" stroke-opacity="1" stroke-miterlimit="10" d="M -0.000840782 40.001797 L 19.917525 0.00108921 L -19.916041 -0.0000410197 Z M -0.000840782 40.001797 " transform="matrix(-0.965926, -0.258819, -0.258819, 0.965926, 397.766477, 881.540701)"/>
<path fill="none" stroke-width="10" stroke-linecap="butt" stroke-linejoin="miter" stroke="rgb(29.8%, 37.6%, 89.8%)" stroke-opacity="1" stroke-miterlimit="10" d="M -0.00191787 40.001183 L 19.916448 0.000475215 L -19.917118 -0.000655014 Z M -0.00191787 40.001183 " transform="matrix(-0.965926, -0.258819, -0.258819, 0.965926, 387.413715, 920.177734)"/>
<path fill="none" stroke-width="6" stroke-linecap="butt" stroke-linejoin="miter" stroke="rgb(29.8%, 37.6%, 89.8%)" stroke-opacity="1" stroke-miterlimit="10" d="M -9.998932 0.500605 L 9.998932 0.500605 L 9.998932 20.498468 L -9.998932 20.498468 Z M -9.998932 0.500605 " transform="matrix(-0.707107, -0.707107, -0.707107, 0.707107, 266.654762, 733.345238)"/>
<path fill="none" stroke-width="6" stroke-linecap="butt" stroke-linejoin="miter" stroke="rgb(29.8%, 37.6%, 89.8%)" stroke-opacity="1" stroke-miterlimit="10" d="M -0.000000000000113687 139.999514 L 69.713547 0.000658081 L -69.713547 0.000658081 Z M -0.000000000000113687 139.999514 " transform="matrix(-0.707107, -0.707107, -0.707107, 0.707107, 266.654762, 733.345238)"/>
<path fill="none" stroke-width="10" stroke-linecap="butt" stroke-linejoin="miter" stroke="rgb(29.8%, 37.6%, 89.8%)" stroke-opacity="1" stroke-miterlimit="10" d="M -0.000000000000113687 40.002001 L 19.917762 -0.00201235 L -19.917762 -0.00201235 Z M -0.000000000000113687 40.002001 " transform="matrix(-0.707107, -0.707107, -0.707107, 0.707107, 248.977093, 751.022907)"/>
<path fill="none" stroke-width="10" stroke-linecap="butt" stroke-linejoin="miter" stroke="rgb(29.8%, 37.6%, 89.8%)" stroke-opacity="1" stroke-miterlimit="10" d="M -0.000000000000113687 39.997729 L 19.917762 -0.000760767 L -19.917762 -0.000760767 Z M -0.000000000000113687 39.997729 " transform="matrix(-0.707107, -0.707107, -0.707107, 0.707107, 220.692821, 779.307179)"/>
<path fill="none" stroke-width="10" stroke-linecap="butt" stroke-linejoin="miter" stroke="rgb(29.8%, 37.6%, 89.8%)" stroke-opacity="1" stroke-miterlimit="10" d="M 0 39.99898 L 19.917762 0.000490815 L -19.917762 0.000490815 Z M 0 39.99898 " transform="matrix(-0.707107, -0.707107, -0.707107, 0.707107, 192.40855, 807.59145)"/>
<path fill="none" stroke-width="6" stroke-linecap="butt" stroke-linejoin="miter" stroke="rgb(29.8%, 37.6%, 89.8%)" stroke-opacity="1" stroke-miterlimit="10" d="M -10.000738 0.498275 L 10.000842 0.49723 L 10.001886 20.49881 L -9.999694 20.499854 Z M -10.000738 0.498275 " transform="matrix(-0.258819, -0.965926, -0.965926, 0.258819, 181.244477, 585.410285)"/>
<path fill="none" stroke-width="6" stroke-linecap="butt" stroke-linejoin="miter" stroke="rgb(29.8%, 37.6%, 89.8%)" stroke-opacity="1" stroke-miterlimit="10" d="M 0.000208068 139.999154 L 69.711091 -0.00124819 L -69.711679 -0.00194109 Z M 0.000208068 139.999154 " transform="matrix(-0.258819, -0.965926, -0.965926, 0.258819, 181.244477, 585.410285)"/>
<path fill="none" stroke-width="10" stroke-linecap="butt" stroke-linejoin="miter" stroke="rgb(29.8%, 37.6%, 89.8%)" stroke-opacity="1" stroke-miterlimit="10" d="M -0.00124732 39.998638 L 19.918737 -0.000438037 L -19.918602 0.0017032 Z M -0.00124732 39.998638 " transform="matrix(-0.258819, -0.965926, -0.965926, 0.258819, 157.096332, 591.880761)"/>
<path fill="none" stroke-width="10" stroke-linecap="butt" stroke-linejoin="miter" stroke="rgb(29.8%, 37.6%, 89.8%)" stroke-opacity="1" stroke-miterlimit="10" d="M 0.000840782 40.001797 L 19.916041 -0.0000410197 L -19.917525 0.00108921 Z M 0.000840782 40.001797 " transform="matrix(-0.258819, -0.965926, -0.965926, 0.258819, 118.459299, 602.233523)"/>
<path fill="none" stroke-width="10" stroke-linecap="butt" stroke-linejoin="miter" stroke="rgb(29.8%, 37.6%, 89.8%)" stroke-opacity="1" stroke-miterlimit="10" d="M 0.00191787 40.001183 L 19.917118 -0.000655014 L -19.916448 0.000475215 Z M 0.00191787 40.001183 " transform="matrix(-0.258819, -0.965926, -0.965926, 0.258819, 79.822266, 612.586285)"/>
<path fill="none" stroke-width="6" stroke-linecap="butt" stroke-linejoin="miter" stroke="rgb(29.8%, 37.6%, 89.8%)" stroke-opacity="1" stroke-miterlimit="10" d="M -10.001853 0.501004 L 9.999727 0.502048 L 9.998683 20.503627 L -10.002897 20.502583 Z M -10.001853 0.501004 " transform="matrix(0.258819, -0.965926, -0.965926, -0.258819, 181.244477, 414.589715)"/>
<path fill="none" stroke-width="6" stroke-linecap="butt" stroke-linejoin="miter" stroke="rgb(29.8%, 37.6%, 89.8%)" stroke-opacity="1" stroke-miterlimit="10" d="M -0.000208068 139.999154 L 69.711679 -0.00194109 L -69.711091 -0.00124819 Z M -0.000208068 139.999154 " transform="matrix(0.258819, -0.965926, -0.965926, -0.258819, 181.244477, 414.589715)"/>
<path fill="none" stroke-width="10" stroke-linecap="butt" stroke-linejoin="miter" stroke="rgb(29.8%, 37.6%, 89.8%)" stroke-opacity="1" stroke-miterlimit="10" d="M 0.00124732 39.998638 L 19.918602 0.0017032 L -19.918737 -0.000438037 Z M 0.00124732 39.998638 " transform="matrix(0.258819, -0.965926, -0.965926, -0.258819, 157.096332, 408.119239)"/>
<path fill="none" stroke-width="10" stroke-linecap="butt" stroke-linejoin="miter" stroke="rgb(29.8%, 37.6%, 89.8%)" stroke-opacity="1" stroke-miterlimit="10" d="M -0.000840782 40.001797 L 19.917525 0.00108921 L -19.916041 -0.0000410197 Z M -0.000840782 40.001797 " transform="matrix(0.258819, -0.965926, -0.965926, -0.258819, 118.459299, 397.766477)"/>
<path fill="none" stroke-width="10" stroke-linecap="butt" stroke-linejoin="miter" stroke="rgb(29.8%, 37.6%, 89.8%)" stroke-opacity="1" stroke-miterlimit="10" d="M -0.00191787 40.001183 L 19.916448 0.000475215 L -19.917118 -0.000655014 Z M -0.00191787 40.001183 " transform="matrix(0.258819, -0.965926, -0.965926, -0.258819, 79.822266, 387.413715)"/>
<path fill="none" stroke-width="15" stroke-linecap="butt" stroke-linejoin="miter" stroke="rgb(29.8%, 37.6%, 89.8%)" stroke-opacity="1" stroke-miterlimit="10" d="M 25.001575 -0.000689513 C 24.999103 13.807528 13.807214 25.000734 0.000949484 25.001645 C -13.807268 24.999172 -25.000474 13.807284 -25.001385 0.00101914 C -24.998912 -13.807199 -13.807024 -25.000404 -0.000759172 -25.001315 C 13.807459 -24.998843 25.000664 -13.806954 25.001575 -0.000689513 " transform="matrix(0.866025, -0.5, -0.5, -0.866025, 310, 170.910347)"/>
<path fill="none" stroke-width="10" stroke-linecap="butt" stroke-linejoin="miter" stroke="rgb(29.8%, 37.6%, 89.8%)" stroke-opacity="1" stroke-miterlimit="10" d="M 42.49889 0.000860895 C 42.500685 23.472721 23.473212 42.500546 -0.000600924 42.498959 C -23.472461 42.500755 -42.500286 23.473282 -42.498699 -0.000531265 C -42.500495 -23.472391 -23.473022 -42.500217 0.000791236 -42.49863 C 23.472651 -42.500425 42.500477 -23.472952 42.49889 0.000860895 " transform="matrix(0.866025, -0.5, -0.5, -0.866025, 310, 170.910347)"/>
<path fill="none" stroke-width="15" stroke-linecap="butt" stroke-linejoin="miter" stroke="rgb(29.8%, 37.6%, 89.8%)" stroke-opacity="1" stroke-miterlimit="10" d="M 25 0 C 25 13.808594 13.808594 25 0 25 C -13.808594 25 -25 13.808594 -25 0 C -25 -13.808594 -13.808594 -25 0 -25 C 13.808594 -25 25 -13.808594 25 0 " transform="matrix(1, 0, 0, -1, 500, 120)"/>
<path fill="none" stroke-width="10" stroke-linecap="butt" stroke-linejoin="miter" stroke="rgb(29.8%, 37.6%, 89.8%)" stroke-opacity="1" stroke-miterlimit="10" d="M 42.5 0 C 42.5 23.472656 23.472656 42.5 0 42.5 C -23.472656 42.5 -42.5 23.472656 -42.5 0 C -42.5 -23.472656 -23.472656 -42.5 0 -42.5 C 23.472656 -42.5 42.5 -23.472656 42.5 0 " transform="matrix(1, 0, 0, -1, 500, 120)"/>
<path fill="none" stroke-width="15" stroke-linecap="butt" stroke-linejoin="miter" stroke="rgb(29.8%, 37.6%, 89.8%)" stroke-opacity="1" stroke-miterlimit="10" d="M 25.001385 0.00101914 C 25.000474 13.807284 13.807268 24.999172 -0.000949484 25.001645 C -13.807214 25.000734 -24.999103 13.807528 -25.001575 -0.000689513 C -25.000664 -13.806954 -13.807459 -24.998843 0.000759172 -25.001315 C 13.807024 -25.000404 24.998912 -13.807199 25.001385 0.00101914 " transform="matrix(0.866025, 0.5, 0.5, -0.866025, 690, 170.910347)"/>
<path fill="none" stroke-width="10" stroke-linecap="butt" stroke-linejoin="miter" stroke="rgb(29.8%, 37.6%, 89.8%)" stroke-opacity="1" stroke-miterlimit="10" d="M 42.498699 -0.000531265 C 42.500286 23.473282 23.472461 42.500755 0.000600924 42.498959 C -23.473212 42.500546 -42.500685 23.472721 -42.49889 0.000860895 C -42.500477 -23.472952 -23.472651 -42.500425 -0.000791236 -42.49863 C 23.473022 -42.500217 42.500495 -23.472391 42.498699 -0.000531265 " transform="matrix(0.866025, 0.5, 0.5, -0.866025, 690, 170.910347)"/>
<path fill="none" stroke-width="15" stroke-linecap="butt" stroke-linejoin="miter" stroke="rgb(29.8%, 37.6%, 89.8%)" stroke-opacity="1" stroke-miterlimit="10" d="M 25.001575 -0.000689513 C 24.999103 13.807528 13.807214 25.000734 0.000949484 25.001645 C -13.807268 24.999172 -25.000474 13.807284 -25.001385 0.00101914 C -24.998912 -13.807199 -13.807024 -25.000404 -0.000759172 -25.001315 C 13.807459 -24.998843 25.000664 -13.806954 25.001575 -0.000689513 " transform="matrix(0.5, 0.866025, 0.866025, -0.5, 829.089653, 310)"/>
<path fill="none" stroke-width="10" stroke-linecap="butt" stroke-linejoin="miter" stroke="rgb(29.8%, 37.6%, 89.8%)" stroke-opacity="1" stroke-miterlimit="10" d="M 42.49889 0.000860895 C 42.500685 23.472721 23.473212 42.500546 -0.000600924 42.498959 C -23.472461 42.500755 -42.500286 23.473282 -42.498699 -0.000531265 C -42.500495 -23.472391 -23.473022 -42.500217 0.000791236 -42.49863 C 23.472651 -42.500425 42.500477 -23.472952 42.49889 0.000860895 " transform="matrix(0.5, 0.866025, 0.866025, -0.5, 829.089653, 310)"/>
<path fill="none" stroke-width="15" stroke-linecap="butt" stroke-linejoin="miter" stroke="rgb(29.8%, 37.6%, 89.8%)" stroke-opacity="1" stroke-miterlimit="10" d="M 25 0 C 25 13.808594 13.808594 25 0.000000000000056843 25 C -13.808594 25 -25 13.808594 -25 0.000000000000113687 C -25 -13.808594 -13.808594 -25 0.000000000000056843 -25 C 13.808594 -25 25 -13.808594 25 0 " transform="matrix(0.000000000000000111, 1, 1, -0.000000000000000111, 880, 500)"/>
<path fill="none" stroke-width="10" stroke-linecap="butt" stroke-linejoin="miter" stroke="rgb(29.8%, 37.6%, 89.8%)" stroke-opacity="1" stroke-miterlimit="10" d="M 42.5 0 C 42.5 23.472656 23.472656 42.5 0.000000000000056843 42.5 C -23.472656 42.5 -42.5 23.472656 -42.5 0.000000000000113687 C -42.5 -23.472656 -23.472656 -42.5 0.000000000000056843 -42.5 C 23.472656 -42.5 42.5 -23.472656 42.5 0 " transform="matrix(0.000000000000000111, 1, 1, -0.000000000000000111, 880, 500)"/>
<path fill="none" stroke-width="15" stroke-linecap="butt" stroke-linejoin="miter" stroke="rgb(29.8%, 37.6%, 89.8%)" stroke-opacity="1" stroke-miterlimit="10" d="M 25.001385 0.00101914 C 25.000474 13.807284 13.807268 24.999172 -0.000949484 25.001645 C -13.807214 25.000734 -24.999103 13.807528 -25.001575 -0.000689513 C -25.000664 -13.806954 -13.807459 -24.998843 0.000759172 -25.001315 C 13.807024 -25.000404 24.998912 -13.807199 25.001385 0.00101914 " transform="matrix(-0.5, 0.866025, 0.866025, 0.5, 829.089653, 690)"/>
<path fill="none" stroke-width="10" stroke-linecap="butt" stroke-linejoin="miter" stroke="rgb(29.8%, 37.6%, 89.8%)" stroke-opacity="1" stroke-miterlimit="10" d="M 42.498699 -0.000531265 C 42.500286 23.473282 23.472461 42.500755 0.000600924 42.498959 C -23.473212 42.500546 -42.500685 23.472721 -42.49889 0.000860895 C -42.500477 -23.472952 -23.472651 -42.500425 -0.000791236 -42.49863 C 23.473022 -42.500217 42.500495 -23.472391 42.498699 -0.000531265 " transform="matrix(-0.5, 0.866025, 0.866025, 0.5, 829.089653, 690)"/>
<path fill="none" stroke-width="15" stroke-linecap="butt" stroke-linejoin="miter" stroke="rgb(29.8%, 37.6%, 89.8%)" stroke-opacity="1" stroke-miterlimit="10" d="M 25.001575 -0.000689513 C 24.999103 13.807528 13.807214 25.000734 0.000949484 25.001645 C -13.807268 24.999172 -25.000474 13.807284 -25.001385 0.00101914 C -24.998912 -13.807199 -13.807024 -25.000404 -0.000759172 -25.001315 C 13.807459 -24.998843 25.000664 -13.806954 25.001575 -0.000689513 " transform="matrix(-0.866025, 0.5, 0.5, 0.866025, 690, 829.089653)"/>
<path fill="none" stroke-width="10" stroke-linecap="butt" stroke-linejoin="miter" stroke="rgb(29.8%, 37.6%, 89.8%)" stroke-opacity="1" stroke-miterlimit="10" d="M 42.49889 0.000860895 C 42.500685 23.472721 23.473212 42.500546 -0.000600924 42.498959 C -23.472461 42.500755 -42.500286 23.473282 -42.498699 -0.000531265 C -42.500495 -23.472391 -23.473022 -42.500217 0.000791236 -42.49863 C 23.472651 -42.500425 42.500477 -23.472952 42.49889 0.000860895 " transform="matrix(-0.866025, 0.5, 0.5, 0.866025, 690, 829.089653)"/>
<path fill="none" stroke-width="15" stroke-linecap="butt" stroke-linejoin="miter" stroke="rgb(29.8%, 37.6%, 89.8%)" stroke-opacity="1" stroke-miterlimit="10" d="M 25 0.000000000000113687 C 25 13.808594 13.808594 25 0.000000000000113687 25 C -13.808594 25 -25 13.808594 -25 0.000000000000113687 C -25 -13.808594 -13.808594 -25 0.000000000000056843 -25 C 13.808594 -25 25 -13.808594 25 0.000000000000113687 " transform="matrix(-1, 0.000000000000000222, 0.000000000000000222, 1, 500, 880)"/>
<path fill="none" stroke-width="10" stroke-linecap="butt" stroke-linejoin="miter" stroke="rgb(29.8%, 37.6%, 89.8%)" stroke-opacity="1" stroke-miterlimit="10" d="M 42.5 0.000000000000113687 C 42.5 23.472656 23.472656 42.5 0.000000000000113687 42.5 C -23.472656 42.5 -42.5 23.472656 -42.5 0.000000000000113687 C -42.5 -23.472656 -23.472656 -42.5 0.000000000000056843 -42.5 C 23.472656 -42.5 42.5 -23.472656 42.5 0.000000000000113687 " transform="matrix(-1, 0.000000000000000222, 0.000000000000000222, 1, 500, 880)"/>
<path fill="none" stroke-width="15" stroke-linecap="butt" stroke-linejoin="miter" stroke="rgb(29.8%, 37.6%, 89.8%)" stroke-opacity="1" stroke-miterlimit="10" d="M 25.001385 0.00101914 C 25.000474 13.807284 13.807268 24.999172 -0.000949484 25.001645 C -13.807214 25.000734 -24.999103 13.807528 -25.001575 -0.000689513 C -25.000664 -13.806954 -13.807459 -24.998843 0.000759172 -25.001315 C 13.807024 -25.000404 24.998912 -13.807199 25.001385 0.00101914 " transform="matrix(-0.866025, -0.5, -0.5, 0.866025, 310, 829.089653)"/>
<path fill="none" stroke-width="10" stroke-linecap="butt" stroke-linejoin="miter" stroke="rgb(29.8%, 37.6%, 89.8%)" stroke-opacity="1" stroke-miterlimit="10" d="M 42.498699 -0.000531265 C 42.500286 23.473282 23.472461 42.500755 0.000600924 42.498959 C -23.473212 42.500546 -42.500685 23.472721 -42.49889 0.000860895 C -42.500477 -23.472952 -23.472651 -42.500425 -0.000791236 -42.49863 C 23.473022 -42.500217 42.500495 -23.472391 42.498699 -0.000531265 " transform="matrix(-0.866025, -0.5, -0.5, 0.866025, 310, 829.089653)"/>
<path fill="none" stroke-width="15" stroke-linecap="butt" stroke-linejoin="miter" stroke="rgb(29.8%, 37.6%, 89.8%)" stroke-opacity="1" stroke-miterlimit="10" d="M 25.001575 -0.000689513 C 24.999103 13.807528 13.807214 25.000734 0.000949484 25.001645 C -13.807268 24.999172 -25.000474 13.807284 -25.001385 0.00101914 C -24.998912 -13.807199 -13.807024 -25.000404 -0.000759172 -25.001315 C 13.807459 -24.998843 25.000664 -13.806954 25.001575 -0.000689513 " transform="matrix(-0.5, -0.866025, -0.866025, 0.5, 170.910347, 690)"/>
<path fill="none" stroke-width="10" stroke-linecap="butt" stroke-linejoin="miter" stroke="rgb(29.8%, 37.6%, 89.8%)" stroke-opacity="1" stroke-miterlimit="10" d="M 42.49889 0.000860895 C 42.500685 23.472721 23.473212 42.500546 -0.000600924 42.498959 C -23.472461 42.500755 -42.500286 23.473282 -42.498699 -0.000531265 C -42.500495 -23.472391 -23.473022 -42.500217 0.000791236 -42.49863 C 23.472651 -42.500425 42.500477 -23.472952 42.49889 0.000860895 " transform="matrix(-0.5, -0.866025, -0.866025, 0.5, 170.910347, 690)"/>
<path fill="none" stroke-width="15" stroke-linecap="butt" stroke-linejoin="miter" stroke="rgb(29.8%, 37.6%, 89.8%)" stroke-opacity="1" stroke-miterlimit="10" d="M 25 -0.000000000000028422 C 25 13.808594 13.808594 25 0.000000000000284217 25 C -13.808594 25 -25 13.808594 -25 0.000000000000014211 C -25 -13.808594 -13.808594 -25 0.000000000000227374 -25 C 13.808594 -25 25 -13.808594 25 -0.000000000000028422 " transform="matrix(-0.000000000000000666, -1, -1, 0.000000000000000666, 120, 500)"/>
<path fill="none" stroke-width="10" stroke-linecap="butt" stroke-linejoin="miter" stroke="rgb(29.8%, 37.6%, 89.8%)" stroke-opacity="1" stroke-miterlimit="10" d="M 42.5 -0.000000000000042633 C 42.5 23.472656 23.472656 42.5 0.000000000000284217 42.5 C -23.472656 42.5 -42.5 23.472656 -42.5 0.000000000000014211 C -42.5 -23.472656 -23.472656 -42.5 0.000000000000227374 -42.5 C 23.472656 -42.5 42.5 -23.472656 42.5 -0.000000000000042633 " transform="matrix(-0.000000000000000666, -1, -1, 0.000000000000000666, 120, 500)"/>
<path fill="none" stroke-width="15" stroke-linecap="butt" stroke-linejoin="miter" stroke="rgb(29.8%, 37.6%, 89.8%)" stroke-opacity="1" stroke-miterlimit="10" d="M 25.001385 0.00101914 C 25.000474 13.807284 13.807268 24.999172 -0.000949484 25.001645 C -13.807214 25.000734 -24.999103 13.807528 -25.001575 -0.000689513 C -25.000664 -13.806954 -13.807459 -24.998843 0.000759172 -25.001315 C 13.807024 -25.000404 24.998912 -13.807199 25.001385 0.00101914 " transform="matrix(0.5, -0.866025, -0.866025, -0.5, 170.910347, 310)"/>
<path fill="none" stroke-width="10" stroke-linecap="butt" stroke-linejoin="miter" stroke="rgb(29.8%, 37.6%, 89.8%)" stroke-opacity="1" stroke-miterlimit="10" d="M 42.498699 -0.000531265 C 42.500286 23.473282 23.472461 42.500755 0.000600924 42.498959 C -23.473212 42.500546 -42.500685 23.472721 -42.49889 0.000860895 C -42.500477 -23.472952 -23.472651 -42.500425 -0.000791236 -42.49863 C 23.473022 -42.500217 42.500495 -23.472391 42.498699 -0.000531265 " transform="matrix(0.5, -0.866025, -0.866025, -0.5, 170.910347, 310)"/>
<path fill="none" stroke-width="11" stroke-linecap="butt" stroke-linejoin="miter" stroke="rgb(29.8%, 37.6%, 89.8%)" stroke-opacity="1" stroke-miterlimit="10" d="M 331.999218 0.000451403 C 331.998764 183.35904 183.358137 331.999672 -0.000451403 331.999218 C -183.35904 331.998764 -331.999672 183.358137 -331.999218 -0.000451403 C -331.998764 -183.35904 -183.358137 -331.999672 0.000451403 -331.999218 C 183.35904 -331.998764 331.999672 -183.358137 331.999218 0.000451403 " transform="matrix(0.866025, -0.5, -0.5, -0.866025, 500, 500)"/>
<path fill="none" stroke-width="11" stroke-linecap="butt" stroke-linejoin="miter" stroke="rgb(29.8%, 37.6%, 89.8%)" stroke-opacity="1" stroke-miterlimit="10" d="M 119.998958 0.000542104 C 119.998983 66.274024 66.272869 119.998914 -0.00061249 119.998939 C -66.274094 119.998965 -119.998984 66.27285 -119.99901 -0.00063135 C -119.999035 -66.274113 -66.272921 -119.999003 0.000560964 -119.999028 C 66.274042 -119.999054 119.998933 -66.272939 119.998958 0.000542104 " transform="matrix(0.866025, -0.5, -0.5, -0.866025, 397.5, 322.464792)"/>
<path fill="none" stroke-width="11" stroke-linecap="butt" stroke-linejoin="miter" stroke="rgb(29.8%, 37.6%, 89.8%)" stroke-opacity="1" stroke-miterlimit="10" d="M 49.999551 0.000199847 C 50.001372 27.612729 27.614212 50.001094 -0.000270233 49.999532 C -27.6128 50.001353 -50.001164 27.614193 -49.999602 -0.000289092 C -50.001424 -27.612818 -27.614264 -50.001183 0.000218707 -49.999621 C 27.614701 -49.998059 50.001113 -27.614283 49.999551 0.000199847 " transform="matrix(0.866025, -0.5, -0.5, -0.866025, 397.5, 322.464792)"/>
<path fill="none" stroke-width="8" stroke-linecap="butt" stroke-linejoin="miter" stroke="rgb(29.8%, 37.6%, 89.8%)" stroke-opacity="1" stroke-miterlimit="10" d="M 99.999127 0.000444317 C 99.999387 55.227456 55.22845 100.002232 -0.000514702 99.999109 C -55.227527 99.999368 -99.998919 55.226478 -99.999179 -0.000533562 " transform="matrix(0.866025, -0.5, -0.5, -0.866025, 397.5, 322.464792)"/>
<path fill="none" stroke-width="8" stroke-linecap="butt" stroke-linejoin="miter" stroke="rgb(29.8%, 37.6%, 89.8%)" stroke-opacity="1" stroke-miterlimit="10" d="M -0.000330692 -55.000573 L -31.754775 -0.000883293 L 31.753576 -0.00119381 Z M -0.000330692 -55.000573 " transform="matrix(0.866025, -0.5, -0.5, -0.866025, 388.75, 307.309348)"/>
<path fill="none" stroke-width="8" stroke-linecap="butt" stroke-linejoin="miter" stroke="rgb(29.8%, 37.6%, 89.8%)" stroke-opacity="1" stroke-miterlimit="10" d="M 15.50023 56.847186 L 15.499986 106.846763 M 15.500377 26.84744 L 95.499925 73.035723 M 15.500377 26.84744 L -64.49872 73.03494 M 31.001129 0.000218537 L 111.000678 46.188501 M 31.001129 0.000218537 L 31.001667 -109.99885 M 0.000376954 0.000652903 L -79.99872 46.188153 M 0.000376954 0.000652903 L 0.000914787 -109.998416 " transform="matrix(0.866025, -0.5, -0.5, -0.866025, 388.75, 338.309348)"/>
<path fill="none" stroke-width="11" stroke-linecap="butt" stroke-linejoin="miter" stroke="rgb(29.8%, 37.6%, 89.8%)" stroke-opacity="1" stroke-miterlimit="10" d="M 119.99901 -0.00063135 C 119.998984 66.27285 66.274094 119.998965 0.00061249 119.998939 C -66.272869 119.998914 -119.998983 66.274024 -119.998958 0.000542104 C -119.998933 -66.272939 -66.274042 -119.999054 -0.000560964 -119.999028 C 66.272921 -119.999003 119.999035 -66.274113 119.99901 -0.00063135 " transform="matrix(0.866025, 0.5, 0.5, -0.866025, 602.5, 322.464792)"/>
<path fill="none" stroke-width="11" stroke-linecap="butt" stroke-linejoin="miter" stroke="rgb(29.8%, 37.6%, 89.8%)" stroke-opacity="1" stroke-miterlimit="10" d="M 49.999602 -0.000289092 C 50.001164 27.614193 27.6128 50.001353 0.000270233 49.999532 C -27.614212 50.001094 -50.001372 27.612729 -49.999551 0.000199847 C -50.001113 -27.614283 -27.614701 -49.998059 -0.000218707 -49.999621 C 27.614264 -50.001183 50.001424 -27.612818 49.999602 -0.000289092 " transform="matrix(0.866025, 0.5, 0.5, -0.866025, 602.5, 322.464792)"/>
<path fill="none" stroke-width="8" stroke-linecap="butt" stroke-linejoin="miter" stroke="rgb(29.8%, 37.6%, 89.8%)" stroke-opacity="1" stroke-miterlimit="10" d="M 99.999179 -0.000533562 C 99.998919 55.226478 55.227527 99.999368 0.000514702 99.999109 C -55.22845 100.002232 -99.999387 55.227456 -99.999127 0.000444317 " transform="matrix(0.866025, 0.5, 0.5, -0.866025, 602.5, 322.464792)"/>
<path fill="none" stroke-width="8" stroke-linecap="butt" stroke-linejoin="miter" stroke="rgb(29.8%, 37.6%, 89.8%)" stroke-opacity="1" stroke-miterlimit="10" d="M 0.000330692 -55.000573 L -31.753576 -0.00119381 L 31.754775 -0.000883293 Z M 0.000330692 -55.000573 " transform="matrix(0.866025, 0.5, 0.5, -0.866025, 611.25, 307.309348)"/>
<path fill="none" stroke-width="8" stroke-linecap="butt" stroke-linejoin="miter" stroke="rgb(29.8%, 37.6%, 89.8%)" stroke-opacity="1" stroke-miterlimit="10" d="M 15.49977 56.847186 L 15.500014 106.846763 M 15.499623 26.84744 L 95.49872 73.03494 M 15.499623 26.84744 L -64.499925 73.035723 M 30.999623 0.000652903 L 110.99872 46.188153 M 30.999623 0.000652903 L 30.999085 -109.998416 M -0.0011293 0.000218537 L -80.000678 46.188501 M -0.0011293 0.000218537 L -0.00166713 -109.99885 " transform="matrix(0.866025, 0.5, 0.5, -0.866025, 584.403212, 322.809348)"/>
<path fill="none" stroke-width="11" stroke-linecap="butt" stroke-linejoin="miter" stroke="rgb(29.8%, 37.6%, 89.8%)" stroke-opacity="1" stroke-miterlimit="10" d="M 120 0 C 120 66.273438 66.273438 120 0.000000000000056843 120 C -66.273437 120 -120 66.273438 -120 0.000000000000113687 C -120 -66.273437 -66.273438 -120 0 -120 C 66.273438 -120 120 -66.273438 120 0 " transform="matrix(0.000000000000000111, 1, 1, -0.000000000000000111, 705, 500)"/>
<path fill="none" stroke-width="11" stroke-linecap="butt" stroke-linejoin="miter" stroke="rgb(29.8%, 37.6%, 89.8%)" stroke-opacity="1" stroke-miterlimit="10" d="M 50 0 C 50 27.613281 27.613281 50 0 50 C -27.613281 50 -50 27.613281 -50 0.000000000000113687 C -50 -27.613281 -27.613281 -50 0 -50 C 27.613281 -50 50 -27.613281 50 0 " transform="matrix(0.000000000000000111, 1, 1, -0.000000000000000111, 705, 500)"/>
<path fill="none" stroke-width="8" stroke-linecap="butt" stroke-linejoin="miter" stroke="rgb(29.8%, 37.6%, 89.8%)" stroke-opacity="1" stroke-miterlimit="10" d="M 100 0 C 100 55.226562 55.226563 100 0.000000000000056843 100 C -55.226562 100 -100 55.226563 -100 0.000000000000113687 " transform="matrix(0.000000000000000111, 1, 1, -0.000000000000000111, 705, 500)"/>
<path fill="none" stroke-width="8" stroke-linecap="butt" stroke-linejoin="miter" stroke="rgb(29.8%, 37.6%, 89.8%)" stroke-opacity="1" stroke-miterlimit="10" d="M 0 -55 L -31.753906 0.000000000000113687 L 31.753906 0 Z M 0 -55 " transform="matrix(0.000000000000000111, 1, 1, -0.000000000000000111, 722.5, 500)"/>
<path fill="none" stroke-width="8" stroke-linecap="butt" stroke-linejoin="miter" stroke="rgb(29.8%, 37.6%, 89.8%)" stroke-opacity="1" stroke-miterlimit="10" d="M 15.5 56.846788 L 15.5 106.846788 M 15.5 26.846788 L 95.5 73.034288 M 15.5 26.846788 L -64.5 73.034288 M 31 -0.000868733 L 111 46.186631 M 31 -0.000868733 L 31 -110.000869 M 0.000000000000056843 -0.000868733 L -80 46.186631 M 0.000000000000056843 -0.000868733 L 0.000000000000056843 -110.000869 " transform="matrix(0.000000000000000111, 1, 1, -0.000000000000000111, 695.653212, 484.5)"/>
<path fill="none" stroke-width="11" stroke-linecap="butt" stroke-linejoin="miter" stroke="rgb(29.8%, 37.6%, 89.8%)" stroke-opacity="1" stroke-miterlimit="10" d="M 119.998958 0.000542104 C 119.998983 66.274024 66.272869 119.998914 -0.00061249 119.998939 C -66.274094 119.998965 -119.998984 66.27285 -119.99901 -0.00063135 C -119.999035 -66.274113 -66.272921 -119.999003 0.000560964 -119.999028 C 66.274042 -119.999054 119.998933 -66.272939 119.998958 0.000542104 " transform="matrix(-0.866025, 0.5, 0.5, 0.866025, 602.5, 677.535208)"/>
<path fill="none" stroke-width="11" stroke-linecap="butt" stroke-linejoin="miter" stroke="rgb(29.8%, 37.6%, 89.8%)" stroke-opacity="1" stroke-miterlimit="10" d="M 49.999551 0.000199847 C 50.001372 27.612729 27.614212 50.001094 -0.000270233 49.999532 C -27.6128 50.001353 -50.001164 27.614193 -49.999602 -0.000289092 C -50.001424 -27.612818 -27.614264 -50.001183 0.000218707 -49.999621 C 27.614701 -49.998059 50.001113 -27.614283 49.999551 0.000199847 " transform="matrix(-0.866025, 0.5, 0.5, 0.866025, 602.5, 677.535208)"/>
<path fill="none" stroke-width="8" stroke-linecap="butt" stroke-linejoin="miter" stroke="rgb(29.8%, 37.6%, 89.8%)" stroke-opacity="1" stroke-miterlimit="10" d="M 99.999127 0.000444317 C 99.999387 55.227456 55.22845 100.002232 -0.000514702 99.999109 C -55.227527 99.999368 -99.998919 55.226478 -99.999179 -0.000533562 " transform="matrix(-0.866025, 0.5, 0.5, 0.866025, 602.5, 677.535208)"/>
<path fill="none" stroke-width="8" stroke-linecap="butt" stroke-linejoin="miter" stroke="rgb(29.8%, 37.6%, 89.8%)" stroke-opacity="1" stroke-miterlimit="10" d="M -0.000330692 -55.000573 L -31.754775 -0.000883293 L 31.753576 -0.00119381 Z M -0.000330692 -55.000573 " transform="matrix(-0.866025, 0.5, 0.5, 0.866025, 611.25, 692.690652)"/>
<path fill="none" stroke-width="8" stroke-linecap="butt" stroke-linejoin="miter" stroke="rgb(29.8%, 37.6%, 89.8%)" stroke-opacity="1" stroke-miterlimit="10" d="M 15.50023 56.847186 L 15.499986 106.846763 M 15.500377 26.84744 L 95.499925 73.035723 M 15.500377 26.84744 L -64.49872 73.03494 M 31.001129 0.000218537 L 111.000678 46.188501 M 31.001129 0.000218537 L 31.001667 -109.99885 M 0.000376954 0.000652903 L -79.99872 46.188153 M 0.000376954 0.000652903 L 0.000914787 -109.998416 " transform="matrix(-0.866025, 0.5, 0.5, 0.866025, 611.25, 661.690652)"/>
<path fill="none" stroke-width="11" stroke-linecap="butt" stroke-linejoin="miter" stroke="rgb(29.8%, 37.6%, 89.8%)" stroke-opacity="1" stroke-miterlimit="10" d="M 119.99901 -0.00063135 C 119.998984 66.27285 66.274094 119.998965 0.00061249 119.998939 C -66.272869 119.998914 -119.998983 66.274024 -119.998958 0.000542104 C -119.998933 -66.272939 -66.274042 -119.999054 -0.000560964 -119.999028 C 66.272921 -119.999003 119.999035 -66.274113 119.99901 -0.00063135 " transform="matrix(-0.866025, -0.5, -0.5, 0.866025, 397.5, 677.535208)"/>
<path fill="none" stroke-width="11" stroke-linecap="butt" stroke-linejoin="miter" stroke="rgb(29.8%, 37.6%, 89.8%)" stroke-opacity="1" stroke-miterlimit="10" d="M 49.999602 -0.000289092 C 50.001164 27.614193 27.6128 50.001353 0.000270233 49.999532 C -27.614212 50.001094 -50.001372 27.612729 -49.999551 0.000199847 C -50.001113 -27.614283 -27.614701 -49.998059 -0.000218707 -49.999621 C 27.614264 -50.001183 50.001424 -27.612818 49.999602 -0.000289092 " transform="matrix(-0.866025, -0.5, -0.5, 0.866025, 397.5, 677.535208)"/>
<path fill="none" stroke-width="8" stroke-linecap="butt" stroke-linejoin="miter" stroke="rgb(29.8%, 37.6%, 89.8%)" stroke-opacity="1" stroke-miterlimit="10" d="M 99.999179 -0.000533562 C 99.998919 55.226478 55.227527 99.999368 0.000514702 99.999109 C -55.22845 100.002232 -99.999387 55.227456 -99.999127 0.000444317 " transform="matrix(-0.866025, -0.5, -0.5, 0.866025, 397.5, 677.535208)"/>
<path fill="none" stroke-width="8" stroke-linecap="butt" stroke-linejoin="miter" stroke="rgb(29.8%, 37.6%, 89.8%)" stroke-opacity="1" stroke-miterlimit="10" d="M 0.000330692 -55.000573 L -31.753576 -0.00119381 L 31.754775 -0.000883293 Z M 0.000330692 -55.000573 " transform="matrix(-0.866025, -0.5, -0.5, 0.866025, 388.75, 692.690652)"/>
<path fill="none" stroke-width="8" stroke-linecap="butt" stroke-linejoin="miter" stroke="rgb(29.8%, 37.6%, 89.8%)" stroke-opacity="1" stroke-miterlimit="10" d="M 15.49977 56.847186 L 15.500014 106.846763 M 15.499623 26.84744 L 95.49872 73.03494 M 15.499623 26.84744 L -64.499925 73.035723 M 30.999623 0.000652903 L 110.99872 46.188153 M 30.999623 0.000652903 L 30.999085 -109.998416 M -0.0011293 0.000218537 L -80.000678 46.188501 M -0.0011293 0.000218537 L -0.00166713 -109.99885 " transform="matrix(-0.866025, -0.5, -0.5, 0.866025, 415.596788, 677.190652)"/>
<path fill="none" stroke-width="11" stroke-linecap="butt" stroke-linejoin="miter" stroke="rgb(29.8%, 37.6%, 89.8%)" stroke-opacity="1" stroke-miterlimit="10" d="M 120 -0.000000000000113687 C 120 66.273437 66.273438 120 0.000000000000227374 120 C -66.273437 120 -120 66.273438 -120 0.000000000000056843 C -120 -66.273437 -66.273437 -120 0.000000000000056843 -120 C 66.273438 -120 120 -66.273438 120 -0.000000000000113687 " transform="matrix(-0.000000000000000666, -1, -1, 0.000000000000000666, 295, 500)"/>
<path fill="none" stroke-width="11" stroke-linecap="butt" stroke-linejoin="miter" stroke="rgb(29.8%, 37.6%, 89.8%)" stroke-opacity="1" stroke-miterlimit="10" d="M 50 -0.000000000000056843 C 50 27.613281 27.613281 50 0.00000000000017053 50 C -27.613281 50 -50 27.613281 -50 0 C -50 -27.613281 -27.613281 -50 0.000000000000113687 -50 C 27.613281 -50 50 -27.613281 50 -0.000000000000056843 " transform="matrix(-0.000000000000000666, -1, -1, 0.000000000000000666, 295, 500)"/>
<path fill="none" stroke-width="8" stroke-linecap="butt" stroke-linejoin="miter" stroke="rgb(29.8%, 37.6%, 89.8%)" stroke-opacity="1" stroke-miterlimit="10" d="M 100 -0.000000000000056843 C 100 55.226562 55.226563 100 0.000000000000227374 100 C -55.226562 100 -100 55.226563 -100 0.000000000000056843 " transform="matrix(-0.000000000000000666, -1, -1, 0.000000000000000666, 295, 500)"/>
<path fill="none" stroke-width="8" stroke-linecap="butt" stroke-linejoin="miter" stroke="rgb(29.8%, 37.6%, 89.8%)" stroke-opacity="1" stroke-miterlimit="10" d="M 0.000000000000113687 -55 L -31.753906 0 L 31.753906 -0.000000000000056843 Z M 0.000000000000113687 -55 " transform="matrix(-0.000000000000000666, -1, -1, 0.000000000000000666, 277.5, 500)"/>
<path fill="none" stroke-width="8" stroke-linecap="butt" stroke-linejoin="miter" stroke="rgb(29.8%, 37.6%, 89.8%)" stroke-opacity="1" stroke-miterlimit="10" d="M 15.5 56.846788 L 15.5 106.846788 M 15.5 26.846788 L 95.5 73.034288 M 15.5 26.846788 L -64.5 73.034288 M 31 -0.000868733 L 111 46.186631 M 31 -0.000868733 L 31 -110.000869 M 0.000000000000113687 -0.000868733 L -80 46.186631 M 0.000000000000113687 -0.000868733 L 0.000000000000113687 -110.000869 " transform="matrix(-0.000000000000000666, -1, -1, 0.000000000000000666, 304.346788, 515.5)"/>
<path fill="none" stroke-width="7.5" stroke-linecap="butt" stroke-linejoin="miter" stroke="rgb(29.8%, 37.6%, 89.8%)" stroke-opacity="1" stroke-miterlimit="10" d="M 17.501077 -0.000254745 C 17.500192 9.665341 9.665572 17.500925 -0.000023131 17.50004 C -9.665619 17.499155 -17.501203 9.664535 -17.500318 -0.00106018 C -17.499433 -9.666656 -9.666766 -17.498857 0.000782303 -17.501355 C 9.666378 -17.50047 17.501962 -9.66585 17.501077 -0.000254745 " transform="matrix(0.5, -0.866025, -0.866025, -0.5, 346.280491, 411.25)"/>
<path fill="none" stroke-width="7.5" stroke-linecap="butt" stroke-linejoin="miter" stroke="rgb(29.8%, 37.6%, 89.8%)" stroke-opacity="1" stroke-miterlimit="10" d="M 55.001605 0.0000501839 C 55.000069 30.377711 30.37395 55.000151 -0.00032806 55.000568 C -30.374606 55.000985 -55.002382 30.376295 -55.000846 -0.00136511 C -55.001263 -30.375643 -30.375144 -54.998083 -0.000865893 -54.9985 C 30.375365 -55.0023 55.001188 -30.374227 55.001605 0.0000501839 " transform="matrix(0.5, -0.866025, -0.866025, -0.5, 346.280491, 411.25)"/>
<path fill="none" stroke-width="7.5" stroke-linecap="butt" stroke-linejoin="miter" stroke="rgb(29.8%, 37.6%, 89.8%)" stroke-opacity="1" stroke-miterlimit="10" d="M 17.5 0 C 17.5 9.664062 9.664062 17.5 0 17.5 C -9.664062 17.5 -17.5 9.664062 -17.5 0 C -17.5 -9.664062 -9.664062 -17.5 0 -17.5 C 9.664062 -17.5 17.5 -9.664062 17.5 0 " transform="matrix(1, 0, 0, -1, 500, 322.5)"/>
<path fill="none" stroke-width="7.5" stroke-linecap="butt" stroke-linejoin="miter" stroke="rgb(29.8%, 37.6%, 89.8%)" stroke-opacity="1" stroke-miterlimit="10" d="M 55 0 C 55 30.375 30.375 55 0 55 C -30.375 55 -55 30.375 -55 0 C -55 -30.375 -30.375 -55 0 -55 C 30.375 -55 55 -30.375 55 0 " transform="matrix(1, 0, 0, -1, 500, 322.5)"/>
<path fill="none" stroke-width="7.5" stroke-linecap="butt" stroke-linejoin="miter" stroke="rgb(29.8%, 37.6%, 89.8%)" stroke-opacity="1" stroke-miterlimit="10" d="M 17.500318 -0.00106018 C 17.501203 9.664535 9.665619 17.499155 0.000023131 17.50004 C -9.665572 17.500925 -17.500192 9.665341 -17.501077 -0.000254745 C -17.501962 -9.66585 -9.666378 -17.50047 -0.000782303 -17.501355 C 9.666766 -17.498857 17.499433 -9.666656 17.500318 -0.00106018 " transform="matrix(0.5, 0.866025, 0.866025, -0.5, 653.719509, 411.25)"/>
<path fill="none" stroke-width="7.5" stroke-linecap="butt" stroke-linejoin="miter" stroke="rgb(29.8%, 37.6%, 89.8%)" stroke-opacity="1" stroke-miterlimit="10" d="M 55.000846 -0.00136511 C 55.002382 30.376295 30.374606 55.000985 0.00032806 55.000568 C -30.37395 55.000151 -55.000069 30.377711 -55.001605 0.0000501839 C -55.001188 -30.374227 -30.375365 -55.0023 0.000865893 -54.9985 C 30.375144 -54.998083 55.001263 -30.375643 55.000846 -0.00136511 " transform="matrix(0.5, 0.866025, 0.866025, -0.5, 653.719509, 411.25)"/>
<path fill="none" stroke-width="7.5" stroke-linecap="butt" stroke-linejoin="miter" stroke="rgb(29.8%, 37.6%, 89.8%)" stroke-opacity="1" stroke-miterlimit="10" d="M 17.501077 -0.000254745 C 17.500192 9.665341 9.665572 17.500925 -0.000023131 17.50004 C -9.665619 17.499155 -17.501203 9.664535 -17.500318 -0.00106018 C -17.499433 -9.666656 -9.666766 -17.498857 0.000782303 -17.501355 C 9.666378 -17.50047 17.501962 -9.66585 17.501077 -0.000254745 " transform="matrix(-0.5, 0.866025, 0.866025, 0.5, 653.719509, 588.75)"/>
<path fill="none" stroke-width="7.5" stroke-linecap="butt" stroke-linejoin="miter" stroke="rgb(29.8%, 37.6%, 89.8%)" stroke-opacity="1" stroke-miterlimit="10" d="M 55.001605 0.0000501839 C 55.000069 30.377711 30.37395 55.000151 -0.00032806 55.000568 C -30.374606 55.000985 -55.002382 30.376295 -55.000846 -0.00136511 C -55.001263 -30.375643 -30.375144 -54.998083 -0.000865893 -54.9985 C 30.375365 -55.0023 55.001188 -30.374227 55.001605 0.0000501839 " transform="matrix(-0.5, 0.866025, 0.866025, 0.5, 653.719509, 588.75)"/>
<path fill="none" stroke-width="7.5" stroke-linecap="butt" stroke-linejoin="miter" stroke="rgb(29.8%, 37.6%, 89.8%)" stroke-opacity="1" stroke-miterlimit="10" d="M 17.5 0.000000000000113687 C 17.5 9.664063 9.664063 17.5 0.000000000000056843 17.5 C -9.664062 17.5 -17.5 9.664063 -17.5 0.000000000000113687 C -17.5 -9.664062 -9.664062 -17.5 0.000000000000056843 -17.5 C 9.664063 -17.5 17.5 -9.664062 17.5 0.000000000000113687 " transform="matrix(-1, 0.000000000000000222, 0.000000000000000222, 1, 500, 677.5)"/>
<path fill="none" stroke-width="7.5" stroke-linecap="butt" stroke-linejoin="miter" stroke="rgb(29.8%, 37.6%, 89.8%)" stroke-opacity="1" stroke-miterlimit="10" d="M 55 0.000000000000113687 C 55 30.375 30.375 55 0.000000000000056843 55 C -30.375 55 -55 30.375 -55 0.000000000000113687 C -55 -30.375 -30.375 -55 0 -55 C 30.375 -55 55 -30.375 55 0.000000000000113687 " transform="matrix(-1, 0.000000000000000222, 0.000000000000000222, 1, 500, 677.5)"/>
<path fill="none" stroke-width="7.5" stroke-linecap="butt" stroke-linejoin="miter" stroke="rgb(29.8%, 37.6%, 89.8%)" stroke-opacity="1" stroke-miterlimit="10" d="M 17.500318 -0.00106018 C 17.501203 9.664535 9.665619 17.499155 0.000023131 17.50004 C -9.665572 17.500925 -17.500192 9.665341 -17.501077 -0.000254745 C -17.501962 -9.66585 -9.666378 -17.50047 -0.000782303 -17.501355 C 9.666766 -17.498857 17.499433 -9.666656 17.500318 -0.00106018 " transform="matrix(-0.5, -0.866025, -0.866025, 0.5, 346.280491, 588.75)"/>
<path fill="none" stroke-width="7.5" stroke-linecap="butt" stroke-linejoin="miter" stroke="rgb(29.8%, 37.6%, 89.8%)" stroke-opacity="1" stroke-miterlimit="10" d="M 55.000846 -0.00136511 C 55.002382 30.376295 30.374606 55.000985 0.00032806 55.000568 C -30.37395 55.000151 -55.000069 30.377711 -55.001605 0.0000501839 C -55.001188 -30.374227 -30.375365 -55.0023 0.000865893 -54.9985 C 30.375144 -54.998083 55.001263 -30.375643 55.000846 -0.00136511 " transform="matrix(-0.5, -0.866025, -0.866025, 0.5, 346.280491, 588.75)"/>
<path fill="none" stroke-width="15" stroke-linecap="butt" stroke-linejoin="miter" stroke="rgb(0%, 0%, 0%)" stroke-opacity="1" stroke-miterlimit="10" d="M 32 0 C 32 17.671875 17.671875 32 0 32 C -17.671875 32 -32 17.671875 -32 0 C -32 -17.671875 -17.671875 -32 0 -32 C 17.671875 -32 32 -17.671875 32 0 M 80 0 L 40 -69.28125 L -40 -69.28125 L -80 0 L -40 69.28125 L 40 69.28125 L 80 0 L 480 0 M 0 69.28125 L 360 69.28125 L 480 0 L 360 -69.28125 L 0 -69.28125 M 40 69.28125 L 160 0 L 40 -69.28125 M 120 69.28125 L 240 0 L 120 -69.28125 M 200 69.28125 L 320 0 L 200 -69.28125 M 280 69.28125 L 400 0 L 280 -69.28125 " transform="matrix(1, 0, 0, -1, 500, 500)"/>
<path fill="none" stroke-width="7.5" stroke-linecap="butt" stroke-linejoin="miter" stroke="rgb(0%, 0%, 0%)" stroke-opacity="1" stroke-miterlimit="10" d="M 495 0 C 495 176.847656 400.652344 340.257812 247.5 428.683594 C 94.347656 517.105469 -94.347656 517.105469 -247.5 428.683594 C -400.652344 340.257812 -495 176.847656 -495 0 C -495 -176.847656 -400.652344 -340.257812 -247.5 -428.683594 C -94.347656 -517.105469 94.347656 -517.105469 247.5 -428.683594 C 400.652344 -340.257812 495 -176.847656 495 0 " transform="matrix(1, 0, 0, -1, 500, 500)"/>
<path fill="none" stroke-width="15" stroke-linecap="butt" stroke-linejoin="miter" stroke="rgb(0%, 0%, 0%)" stroke-opacity="1" stroke-miterlimit="10" d="M 333.976562 63.710938 C 301.113281 235.984375 142.605469 354.996094 -31.996094 338.492188 C -206.601562 321.984375 -340 175.382812 -340 0 C -340 -175.382812 -206.601562 -321.984375 -31.996094 -338.492188 C 142.605469 -354.996094 301.113281 -235.984375 333.976562 -63.710938 " transform="matrix(1, 0, 0, -1, 500, 500)"/>
<path fill="none" stroke-width="15" stroke-linecap="butt" stroke-linejoin="miter" stroke="rgb(0%, 0%, 0%)" stroke-opacity="1" stroke-miterlimit="10" d="M 25.001433 0.000934456 C 25.000523 13.807199 13.807317 24.999088 -0.00090059 25.00156 C -13.807165 25.000649 -24.999054 13.807444 -25.001526 -0.0007742 C -25.000615 -13.807039 -13.80741 -24.998927 0.000808066 -25.0014 C 13.807073 -25.000489 24.998961 -13.807283 25.001433 0.000934456 " transform="matrix(-0.5, 0.866025, 0.866025, 0.5, 837.749907, 695)"/>
<path fill="none" stroke-width="7.5" stroke-linecap="butt" stroke-linejoin="miter" stroke="rgb(0%, 0%, 0%)" stroke-opacity="1" stroke-miterlimit="10" d="M 42.498748 -0.000615952 C 42.500335 23.473197 23.47251 42.50067 0.000649818 42.498874 C -23.473163 42.500462 -42.500636 23.472636 -42.498841 0.000776209 C -42.500428 -23.473037 -23.472603 -42.50051 -0.000742342 -42.498714 C 23.473071 -42.500301 42.500544 -23.472476 42.498748 -0.000615952 " transform="matrix(-0.5, 0.866025, 0.866025, 0.5, 837.749907, 695)"/>
<path fill="none" stroke-width="15" stroke-linecap="butt" stroke-linejoin="miter" stroke="rgb(0%, 0%, 0%)" stroke-opacity="1" stroke-miterlimit="10" d="M 25.001526 -0.0007742 C 24.999054 13.807444 13.807165 25.000649 0.00090059 25.00156 C -13.807317 24.999088 -25.000523 13.807199 -25.001433 0.000934456 C -24.998961 -13.807283 -13.807073 -25.000489 -0.000808066 -25.0014 C 13.80741 -24.998927 25.000615 -13.807039 25.001526 -0.0007742 " transform="matrix(-0.866025, 0.5, 0.5, 0.866025, 695, 837.749907)"/>
<path fill="none" stroke-width="7.5" stroke-linecap="butt" stroke-linejoin="miter" stroke="rgb(0%, 0%, 0%)" stroke-opacity="1" stroke-miterlimit="10" d="M 42.498841 0.000776209 C 42.500636 23.472636 23.473163 42.500462 -0.000649818 42.498874 C -23.47251 42.50067 -42.500335 23.473197 -42.498748 -0.000615952 C -42.500544 -23.472476 -23.473071 -42.500301 0.000742342 -42.498714 C 23.472603 -42.50051 42.500428 -23.473037 42.498841 0.000776209 " transform="matrix(-0.866025, 0.5, 0.5, 0.866025, 695, 837.749907)"/>
<path fill="none" stroke-width="15" stroke-linecap="butt" stroke-linejoin="miter" stroke="rgb(0%, 0%, 0%)" stroke-opacity="1" stroke-miterlimit="10" d="M 25 0.000000000000113687 C 25 13.808594 13.808594 25 0.000000000000056843 25 C -13.808594 25 -25 13.808594 -25 0.000000000000113687 C -25 -13.808594 -13.808594 -25 0.000000000000056843 -25 C 13.808594 -25 25 -13.808594 25 0.000000000000113687 " transform="matrix(-1, 0.000000000000000122, 0.000000000000000122, 1, 500, 890)"/>
<path fill="none" stroke-width="7.5" stroke-linecap="butt" stroke-linejoin="miter" stroke="rgb(0%, 0%, 0%)" stroke-opacity="1" stroke-miterlimit="10" d="M 42.5 0 C 42.5 23.472656 23.472656 42.5 0.000000000000056843 42.5 C -23.472656 42.5 -42.5 23.472656 -42.5 0.000000000000113687 C -42.5 -23.472656 -23.472656 -42.5 0.000000000000056843 -42.5 C 23.472656 -42.5 42.5 -23.472656 42.5 0 " transform="matrix(-1, 0.000000000000000122, 0.000000000000000122, 1, 500, 890)"/>
<path fill="none" stroke-width="15" stroke-linecap="butt" stroke-linejoin="miter" stroke="rgb(0%, 0%, 0%)" stroke-opacity="1" stroke-miterlimit="10" d="M 25.001433 0.000934456 C 25.000523 13.807199 13.807317 24.999088 -0.00090059 25.00156 C -13.807165 25.000649 -24.999054 13.807444 -25.001526 -0.0007742 C -25.000615 -13.807039 -13.80741 -24.998927 0.000808066 -25.0014 C 13.807073 -25.000489 24.998961 -13.807283 25.001433 0.000934456 " transform="matrix(-0.866025, -0.5, -0.5, 0.866025, 305, 837.749907)"/>
<path fill="none" stroke-width="7.5" stroke-linecap="butt" stroke-linejoin="miter" stroke="rgb(0%, 0%, 0%)" stroke-opacity="1" stroke-miterlimit="10" d="M 42.498748 -0.000615952 C 42.500335 23.473197 23.47251 42.50067 0.000649818 42.498874 C -23.473163 42.500462 -42.500636 23.472636 -42.498841 0.000776209 C -42.500428 -23.473037 -23.472603 -42.50051 -0.000742342 -42.498714 C 23.473071 -42.500301 42.500544 -23.472476 42.498748 -0.000615952 " transform="matrix(-0.866025, -0.5, -0.5, 0.866025, 305, 837.749907)"/>
<path fill="none" stroke-width="15" stroke-linecap="butt" stroke-linejoin="miter" stroke="rgb(0%, 0%, 0%)" stroke-opacity="1" stroke-miterlimit="10" d="M 25.001526 -0.0007742 C 24.999054 13.807444 13.807165 25.000649 0.00090059 25.00156 C -13.807317 24.999088 -25.000523 13.807199 -25.001433 0.000934456 C -24.998961 -13.807283 -13.807073 -25.000489 -0.000808066 -25.0014 C 13.80741 -24.998927 25.000615 -13.807039 25.001526 -0.0007742 " transform="matrix(-0.5, -0.866025, -0.866025, 0.5, 162.250093, 695)"/>
<path fill="none" stroke-width="7.5" stroke-linecap="butt" stroke-linejoin="miter" stroke="rgb(0%, 0%, 0%)" stroke-opacity="1" stroke-miterlimit="10" d="M 42.498841 0.000776209 C 42.500636 23.472636 23.473163 42.500462 -0.000649818 42.498874 C -23.47251 42.50067 -42.500335 23.473197 -42.498748 -0.000615952 C -42.500544 -23.472476 -23.473071 -42.500301 0.000742342 -42.498714 C 23.472603 -42.50051 42.500428 -23.473037 42.498841 0.000776209 " transform="matrix(-0.5, -0.866025, -0.866025, 0.5, 162.250093, 695)"/>
<path fill="none" stroke-width="15" stroke-linecap="butt" stroke-linejoin="miter" stroke="rgb(0%, 0%, 0%)" stroke-opacity="1" stroke-miterlimit="10" d="M 25 -0.000000000000028422 C 25 13.808594 13.808594 25 0.000000000000113687 25 C -13.808594 25 -25 13.808594 -25 -0.000000000000014211 C -25 -13.808594 -13.808594 -25 0.000000000000113687 -25 C 13.808594 -25 25 -13.808594 25 -0.000000000000028422 " transform="matrix(-0.000000000000000184, -1, -1, 0.000000000000000184, 110, 500)"/>
<path fill="none" stroke-width="7.5" stroke-linecap="butt" stroke-linejoin="miter" stroke="rgb(0%, 0%, 0%)" stroke-opacity="1" stroke-miterlimit="10" d="M 42.5 -0.000000000000028422 C 42.5 23.472656 23.472656 42.5 0.000000000000113687 42.5 C -23.472656 42.5 -42.5 23.472656 -42.5 -0.000000000000014211 C -42.5 -23.472656 -23.472656 -42.5 0.000000000000113687 -42.5 C 23.472656 -42.5 42.5 -23.472656 42.5 -0.000000000000028422 " transform="matrix(-0.000000000000000184, -1, -1, 0.000000000000000184, 110, 500)"/>
<path fill="none" stroke-width="15" stroke-linecap="butt" stroke-linejoin="miter" stroke="rgb(0%, 0%, 0%)" stroke-opacity="1" stroke-miterlimit="10" d="M 25.001433 0.000934456 C 25.000523 13.807199 13.807317 24.999088 -0.00090059 25.00156 C -13.807165 25.000649 -24.999054 13.807444 -25.001526 -0.0007742 C -25.000615 -13.807039 -13.80741 -24.998927 0.000808066 -25.0014 C 13.807073 -25.000489 24.998961 -13.807283 25.001433 0.000934456 " transform="matrix(0.5, -0.866025, -0.866025, -0.5, 162.250093, 305)"/>
<path fill="none" stroke-width="7.5" stroke-linecap="butt" stroke-linejoin="miter" stroke="rgb(0%, 0%, 0%)" stroke-opacity="1" stroke-miterlimit="10" d="M 42.498748 -0.000615952 C 42.500335 23.473197 23.47251 42.50067 0.000649818 42.498874 C -23.473163 42.500462 -42.500636 23.472636 -42.498841 0.000776209 C -42.500428 -23.473037 -23.472603 -42.50051 -0.000742342 -42.498714 C 23.473071 -42.500301 42.500544 -23.472476 42.498748 -0.000615952 " transform="matrix(0.5, -0.866025, -0.866025, -0.5, 162.250093, 305)"/>
<path fill="none" stroke-width="15" stroke-linecap="butt" stroke-linejoin="miter" stroke="rgb(0%, 0%, 0%)" stroke-opacity="1" stroke-miterlimit="10" d="M 25.001526 -0.0007742 C 24.999054 13.807444 13.807165 25.000649 0.00090059 25.00156 C -13.807317 24.999088 -25.000523 13.807199 -25.001433 0.000934456 C -24.998961 -13.807283 -13.807073 -25.000489 -0.000808066 -25.0014 C 13.80741 -24.998927 25.000615 -13.807039 25.001526 -0.0007742 " transform="matrix(0.866025, -0.5, -0.5, -0.866025, 305, 162.250093)"/>
<path fill="none" stroke-width="7.5" stroke-linecap="butt" stroke-linejoin="miter" stroke="rgb(0%, 0%, 0%)" stroke-opacity="1" stroke-miterlimit="10" d="M 42.498841 0.000776209 C 42.500636 23.472636 23.473163 42.500462 -0.000649818 42.498874 C -23.47251 42.50067 -42.500335 23.473197 -42.498748 -0.000615952 C -42.500544 -23.472476 -23.473071 -42.500301 0.000742342 -42.498714 C 23.472603 -42.50051 42.500428 -23.473037 42.498841 0.000776209 " transform="matrix(0.866025, -0.5, -0.5, -0.866025, 305, 162.250093)"/>
<path fill="none" stroke-width="15" stroke-linecap="butt" stroke-linejoin="miter" stroke="rgb(0%, 0%, 0%)" stroke-opacity="1" stroke-miterlimit="10" d="M 25 -0.000000000000014211 C 25 13.808594 13.808594 25 0.000000000000113687 25 C -13.808594 25 -25 13.808594 -25 0 C -25 -13.808594 -13.808594 -25 0.000000000000056843 -25 C 13.808594 -25 25 -13.808594 25 -0.000000000000014211 " transform="matrix(1, -0.000000000000000245, -0.000000000000000245, -1, 500, 110)"/>
<path fill="none" stroke-width="7.5" stroke-linecap="butt" stroke-linejoin="miter" stroke="rgb(0%, 0%, 0%)" stroke-opacity="1" stroke-miterlimit="10" d="M 42.5 -0.000000000000014211 C 42.5 23.472656 23.472656 42.5 0.000000000000113687 42.5 C -23.472656 42.5 -42.5 23.472656 -42.5 0 C -42.5 -23.472656 -23.472656 -42.5 0.000000000000056843 -42.5 C 23.472656 -42.5 42.5 -23.472656 42.5 -0.000000000000014211 " transform="matrix(1, -0.000000000000000245, -0.000000000000000245, -1, 500, 110)"/>
<path fill="none" stroke-width="15" stroke-linecap="butt" stroke-linejoin="miter" stroke="rgb(0%, 0%, 0%)" stroke-opacity="1" stroke-miterlimit="10" d="M 25.001433 0.000934456 C 25.000523 13.807199 13.807317 24.999088 -0.00090059 25.00156 C -13.807165 25.000649 -24.999054 13.807444 -25.001526 -0.0007742 C -25.000615 -13.807039 -13.80741 -24.998927 0.000808066 -25.0014 C 13.807073 -25.000489 24.998961 -13.807283 25.001433 0.000934456 " transform="matrix(0.866025, 0.5, 0.5, -0.866025, 695, 162.250093)"/>
<path fill="none" stroke-width="7.5" stroke-linecap="butt" stroke-linejoin="miter" stroke="rgb(0%, 0%, 0%)" stroke-opacity="1" stroke-miterlimit="10" d="M 42.498748 -0.000615952 C 42.500335 23.473197 23.47251 42.50067 0.000649818 42.498874 C -23.473163 42.500462 -42.500636 23.472636 -42.498841 0.000776209 C -42.500428 -23.473037 -23.472603 -42.50051 -0.000742342 -42.498714 C 23.473071 -42.500301 42.500544 -23.472476 42.498748 -0.000615952 " transform="matrix(0.866025, 0.5, 0.5, -0.866025, 695, 162.250093)"/>
<path fill="none" stroke-width="15" stroke-linecap="butt" stroke-linejoin="miter" stroke="rgb(0%, 0%, 0%)" stroke-opacity="1" stroke-miterlimit="10" d="M 25.001526 -0.0007742 C 24.999054 13.807444 13.807165 25.000649 0.00090059 25.00156 C -13.807317 24.999088 -25.000523 13.807199 -25.001433 0.000934456 C -24.998961 -13.807283 -13.807073 -25.000489 -0.000808066 -25.0014 C 13.80741 -24.998927 25.000615 -13.807039 25.001526 -0.0007742 " transform="matrix(0.5, 0.866025, 0.866025, -0.5, 837.749907, 305)"/>
<path fill="none" stroke-width="7.5" stroke-linecap="butt" stroke-linejoin="miter" stroke="rgb(0%, 0%, 0%)" stroke-opacity="1" stroke-miterlimit="10" d="M 42.498841 0.000776209 C 42.500636 23.472636 23.473163 42.500462 -0.000649818 42.498874 C -23.47251 42.50067 -42.500335 23.473197 -42.498748 -0.000615952 C -42.500544 -23.472476 -23.473071 -42.500301 0.000742342 -42.498714 C 23.472603 -42.50051 42.500428 -23.473037 42.498841 0.000776209 " transform="matrix(0.5, 0.866025, 0.866025, -0.5, 837.749907, 305)"/>
</svg>
