<?xml version="1.0" encoding="UTF-8"?>
<svg xmlns="http://www.w3.org/2000/svg" xmlns:xlink="http://www.w3.org/1999/xlink" width="1000" height="1000" viewBox="0 0 1000 1000">
<path fill-rule="nonzero" fill="rgb(0%, 0%, 0%)" fill-opacity="1" d="M 504 500 C 504 494.667969 496 494.667969 496 500 C 496 505.332031 504 505.332031 504 500 "/>
<path fill="none" stroke-width="10" stroke-linecap="butt" stroke-linejoin="miter" stroke="rgb(0%, 0%, 0%)" stroke-opacity="1" stroke-miterlimit="10" d="M 485 0 C 485 173.273438 392.558594 333.386719 242.5 420.023438 C 92.441406 506.660156 -92.441406 506.660156 -242.5 420.023438 C -392.558594 333.386719 -485 173.273438 -485 0 C -485 -173.273438 -392.558594 -333.386719 -242.5 -420.023438 C -92.441406 -506.660156 92.441406 -506.660156 242.5 -420.023438 C 392.558594 -333.386719 485 -173.273438 485 0 " transform="matrix(1, 0, 0, -1, 500, 500)"/>
<path fill="none" stroke-width="6" stroke-linecap="butt" stroke-linejoin="miter" stroke="rgb(0%, 0%, 0%)" stroke-opacity="1" stroke-miterlimit="10" d="M -10 0.5 L 10 0.5 L 10 20.5 L -10 20.5 Z M -10 0.5 " transform="matrix(1, 0, 0, -1, 500, 170)"/>
<path fill="none" stroke-width="6" stroke-linecap="butt" stroke-linejoin="miter" stroke="rgb(0%, 0%, 0%)" stroke-opacity="1" stroke-miterlimit="10" d="M 0 140 L 69.710938 0 L -69.710938 0 Z M 0 140 " transform="matrix(1, 0, 0, -1, 500, 170)"/>
<path fill="none" stroke-width="10" stroke-linecap="butt" stroke-linejoin="miter" stroke="rgb(0%, 0%, 0%)" stroke-opacity="1" stroke-miterlimit="10" d="M 0 40 L 19.917969 0 L -19.917969 0 Z M 0 40 " transform="matrix(1, 0, 0, -1, 500, 145)"/>
<path fill="none" stroke-width="10" stroke-linecap="butt" stroke-linejoin="miter" stroke="rgb(0%, 0%, 0%)" stroke-opacity="1" stroke-miterlimit="10" d="M 0 40 L 19.917969 0 L -19.917969 0 Z M 0 40 " transform="matrix(1, 0, 0, -1, 500, 105)"/>
<path fill="none" stroke-width="10" stroke-linecap="butt" stroke-linejoin="miter" stroke="rgb(0%, 0%, 0%)" stroke-opacity="1" stroke-miterlimit="10" d="M 0 40 L 19.917969 0 L -19.917969 0 Z M 0 40 " transform="matrix(1, 0, 0, -1, 500, 65)"/>
<path fill="none" stroke-width="6" stroke-linecap="butt" stroke-linejoin="miter" stroke="rgb(0%, 0%, 0%)" stroke-opacity="1" stroke-miterlimit="10" d="M -10.000545 0.50114 L 9.999285 0.501043 L 9.999383 20.500873 L -10.000448 20.500971 Z M -10.000545 0.50114 " transform="matrix(0.866025, 0.5, 0.5, -0.866025, 665, 214.211617)"/>
<path fill="none" stroke-width="6" stroke-linecap="butt" stroke-linejoin="miter" stroke="rgb(0%, 0%, 0%)" stroke-opacity="1" stroke-miterlimit="10" d="M 0.000344889 139.999403 L 69.710296 0.000413725 L -69.710975 0.000762772 Z M 0.000344889 139.999403 " transform="matrix(0.866025, 0.5, 0.5, -0.866025, 665, 214.211617)"/>
<path fill="none" stroke-width="10" stroke-linecap="butt" stroke-linejoin="miter" stroke="rgb(0%, 0%, 0%)" stroke-opacity="1" stroke-miterlimit="10" d="M 0.000954747 39.998346 L 19.918213 0.000643067 L -19.918648 0.000109996 Z M 0.000954747 39.998346 " transform="matrix(0.866025, 0.5, 0.5, -0.866025, 677.5, 192.560982)"/>
<path fill="none" stroke-width="10" stroke-linecap="butt" stroke-linejoin="miter" stroke="rgb(0%, 0%, 0%)" stroke-opacity="1" stroke-miterlimit="10" d="M -0.000802802 40.00139 L 19.918409 0.00030432 L -19.918452 -0.000228751 Z M -0.000802802 40.00139 " transform="matrix(0.866025, 0.5, 0.5, -0.866025, 697.5, 157.919966)"/>
<path fill="none" stroke-width="10" stroke-linecap="butt" stroke-linejoin="miter" stroke="rgb(0%, 0%, 0%)" stroke-opacity="1" stroke-miterlimit="10" d="M -0.000607226 40.001052 L 19.918604 -0.0000344269 L -19.918257 -0.000567498 Z M -0.000607226 40.001052 " transform="matrix(0.866025, 0.5, 0.5, -0.866025, 717.5, 123.278949)"/>
<path fill="none" stroke-width="6" stroke-linecap="butt" stroke-linejoin="miter" stroke="rgb(0%, 0%, 0%)" stroke-opacity="1" stroke-miterlimit="10" d="M -9.999285 0.501043 L 10.000545 0.50114 L 10.000448 20.500971 L -9.999383 20.500873 Z M -9.999285 0.501043 " transform="matrix(0.5, 0.866025, 0.866025, -0.5, 785.788383, 335)"/>
<path fill="none" stroke-width="6" stroke-linecap="butt" stroke-linejoin="miter" stroke="rgb(0%, 0%, 0%)" stroke-opacity="1" stroke-miterlimit="10" d="M -0.000344889 139.999403 L 69.710975 0.000762772 L -69.710296 0.000413725 Z M -0.000344889 139.999403 " transform="matrix(0.5, 0.866025, 0.866025, -0.5, 785.788383, 335)"/>
<path fill="none" stroke-width="10" stroke-linecap="butt" stroke-linejoin="miter" stroke="rgb(0%, 0%, 0%)" stroke-opacity="1" stroke-miterlimit="10" d="M -0.000954747 39.998346 L 19.918648 0.000109996 L -19.918213 0.000643067 Z M -0.000954747 39.998346 " transform="matrix(0.5, 0.866025, 0.866025, -0.5, 807.439018, 322.5)"/>
<path fill="none" stroke-width="10" stroke-linecap="butt" stroke-linejoin="miter" stroke="rgb(0%, 0%, 0%)" stroke-opacity="1" stroke-miterlimit="10" d="M 0.000802802 40.00139 L 19.918452 -0.000228751 L -19.918409 0.00030432 Z M 0.000802802 40.00139 " transform="matrix(0.5, 0.866025, 0.866025, -0.5, 842.080034, 302.5)"/>
<path fill="none" stroke-width="10" stroke-linecap="butt" stroke-linejoin="miter" stroke="rgb(0%, 0%, 0%)" stroke-opacity="1" stroke-miterlimit="10" d="M 0.000607226 40.001052 L 19.918257 -0.000567498 L -19.918604 -0.0000344269 Z M 0.000607226 40.001052 " transform="matrix(0.5, 0.866025, 0.866025, -0.5, 876.721051, 282.5)"/>
<path fill="none" stroke-width="6" stroke-linecap="butt" stroke-linejoin="miter" stroke="rgb(0%, 0%, 0%)" stroke-opacity="1" stroke-miterlimit="10" d="M -10 0.5 L 10 0.5 L 10 20.5 L -10 20.5 Z M -10 0.5 " transform="matrix(0.000000000000000061, 1, 1, -0.000000000000000061, 830, 500)"/>
<path fill="none" stroke-width="6" stroke-linecap="butt" stroke-linejoin="miter" stroke="rgb(0%, 0%, 0%)" stroke-opacity="1" stroke-miterlimit="10" d="M 0 140 L 69.710937 0 L -69.710938 0 Z M 0 140 " transform="matrix(0.000000000000000061, 1, 1, -0.000000000000000061, 830, 500)"/>
<path fill="none" stroke-width="10" stroke-linecap="butt" stroke-linejoin="miter" stroke="rgb(0%, 0%, 0%)" stroke-opacity="1" stroke-miterlimit="10" d="M 0 40 L 19.917969 0 L -19.917969 0 Z M 0 40 " transform="matrix(0.000000000000000061, 1, 1, -0.000000000000000061, 855, 500)"/>
<path fill="none" stroke-width="10" stroke-linecap="butt" stroke-linejoin="miter" stroke="rgb(0%, 0%, 0%)" stroke-opacity="1" stroke-miterlimit="10" d="M 0 40 L 19.917969 0 L -19.917969 0 Z M 0 40 " transform="matrix(0.000000000000000061, 1, 1, -0.000000000000000061, 895, 500)"/>
<path fill="none" stroke-width="10" stroke-linecap="butt" stroke-linejoin="miter" stroke="rgb(0%, 0%, 0%)" stroke-opacity="1" stroke-miterlimit="10" d="M 0 40 L 19.917969 0 L -19.917969 0 Z M 0 40 " transform="matrix(0.000000000000000061, 1, 1, -0.000000000000000061, 935, 500)"/>
<path fill="none" stroke-width="6" stroke-linecap="butt" stroke-linejoin="miter" stroke="rgb(0%, 0%, 0%)" stroke-opacity="1" stroke-miterlimit="10" d="M -10.000545 0.50114 L 9.999285 0.501043 L 9.999383 20.500873 L -10.000448 20.500971 Z M -10.000545 0.50114 " transform="matrix(-0.5, 0.866025, 0.866025, 0.5, 785.788383, 665)"/>
<path fill="none" stroke-width="6" stroke-linecap="butt" stroke-linejoin="miter" stroke="rgb(0%, 0%, 0%)" stroke-opacity="1" stroke-miterlimit="10" d="M 0.000344889 139.999403 L 69.710296 0.000413725 L -69.710975 0.000762772 Z M 0.000344889 139.999403 " transform="matrix(-0.5, 0.866025, 0.866025, 0.5, 785.788383, 665)"/>
<path fill="none" stroke-width="10" stroke-linecap="butt" stroke-linejoin="miter" stroke="rgb(0%, 0%, 0%)" stroke-opacity="1" stroke-miterlimit="10" d="M 0.000954747 39.998346 L 19.918213 0.000643067 L -19.918648 0.000109996 Z M 0.000954747 39.998346 " transform="matrix(-0.5, 0.866025, 0.866025, 0.5, 807.439018, 677.5)"/>
<path fill="none" stroke-width="10" stroke-linecap="butt" stroke-linejoin="miter" stroke="rgb(0%, 0%, 0%)" stroke-opacity="1" stroke-miterlimit="10" d="M -0.000802802 40.00139 L 19.918409 0.00030432 L -19.918452 -0.000228751 Z M -0.000802802 40.00139 " transform="matrix(-0.5, 0.866025, 0.866025, 0.5, 842.080034, 697.5)"/>
<path fill="none" stroke-width="10" stroke-linecap="butt" stroke-linejoin="miter" stroke="rgb(0%, 0%, 0%)" stroke-opacity="1" stroke-miterlimit="10" d="M -0.000607226 40.001052 L 19.918604 -0.0000344269 L -19.918257 -0.000567498 Z M -0.000607226 40.001052 " transform="matrix(-0.5, 0.866025, 0.866025, 0.5, 876.721051, 717.5)"/>
<path fill="none" stroke-width="6" stroke-linecap="butt" stroke-linejoin="miter" stroke="rgb(0%, 0%, 0%)" stroke-opacity="1" stroke-miterlimit="10" d="M -9.999285 0.501043 L 10.000545 0.50114 L 10.000448 20.500971 L -9.999383 20.500873 Z M -9.999285 0.501043 " transform="matrix(-0.866025, 0.5, 0.5, 0.866025, 665, 785.788383)"/>
<path fill="none" stroke-width="6" stroke-linecap="butt" stroke-linejoin="miter" stroke="rgb(0%, 0%, 0%)" stroke-opacity="1" stroke-miterlimit="10" d="M -0.000344889 139.999403 L 69.710975 0.000762772 L -69.710296 0.000413725 Z M -0.000344889 139.999403 " transform="matrix(-0.866025, 0.5, 0.5, 0.866025, 665, 785.788383)"/>
<path fill="none" stroke-width="10" stroke-linecap="butt" stroke-linejoin="miter" stroke="rgb(0%, 0%, 0%)" stroke-opacity="1" stroke-miterlimit="10" d="M -0.000954747 39.998346 L 19.918648 0.000109996 L -19.918213 0.000643067 Z M -0.000954747 39.998346 " transform="matrix(-0.866025, 0.5, 0.5, 0.866025, 677.5, 807.439018)"/>
<path fill="none" stroke-width="10" stroke-linecap="butt" stroke-linejoin="miter" stroke="rgb(0%, 0%, 0%)" stroke-opacity="1" stroke-miterlimit="10" d="M 0.000802802 40.00139 L 19.918452 -0.000228751 L -19.918409 0.00030432 Z M 0.000802802 40.00139 " transform="matrix(-0.866025, 0.5, 0.5, 0.866025, 697.5, 842.080034)"/>
<path fill="none" stroke-width="10" stroke-linecap="butt" stroke-linejoin="miter" stroke="rgb(0%, 0%, 0%)" stroke-opacity="1" stroke-miterlimit="10" d="M 0.000607226 40.001052 L 19.918257 -0.000567498 L -19.918604 -0.0000344269 Z M 0.000607226 40.001052 " transform="matrix(-0.866025, 0.5, 0.5, 0.866025, 717.5, 876.721051)"/>
<path fill="none" stroke-width="6" stroke-linecap="butt" stroke-linejoin="miter" stroke="rgb(0%, 0%, 0%)" stroke-opacity="1" stroke-miterlimit="10" d="M -10 0.5 L 10 0.5 L 10 20.5 L -10 20.5 Z M -10 0.5 " transform="matrix(-1, 0.000000000000000122, 0.000000000000000122, 1, 500, 830)"/>
<path fill="none" stroke-width="6" stroke-linecap="butt" stroke-linejoin="miter" stroke="rgb(0%, 0%, 0%)" stroke-opacity="1" stroke-miterlimit="10" d="M 0.000000000000056843 140 L 69.710938 0 L -69.710937 0.000000000000113687 Z M 0.000000000000056843 140 " transform="matrix(-1, 0.000000000000000122, 0.000000000000000122, 1, 500, 830)"/>
<path fill="none" stroke-width="10" stroke-linecap="butt" stroke-linejoin="miter" stroke="rgb(0%, 0%, 0%)" stroke-opacity="1" stroke-miterlimit="10" d="M 0.000000000000056843 40 L 19.917969 0.000000000000113687 L -19.917969 0.000000000000113687 Z M 0.000000000000056843 40 " transform="matrix(-1, 0.000000000000000122, 0.000000000000000122, 1, 500, 855)"/>
<path fill="none" stroke-width="10" stroke-linecap="butt" stroke-linejoin="miter" stroke="rgb(0%, 0%, 0%)" stroke-opacity="1" stroke-miterlimit="10" d="M 0.000000000000056843 40 L 19.917969 0.000000000000113687 L -19.917969 0.000000000000113687 Z M 0.000000000000056843 40 " transform="matrix(-1, 0.000000000000000122, 0.000000000000000122, 1, 500, 895)"/>
<path fill="none" stroke-width="10" stroke-linecap="butt" stroke-linejoin="miter" stroke="rgb(0%, 0%, 0%)" stroke-opacity="1" stroke-miterlimit="10" d="M 0.000000000000056843 40 L 19.917969 0.000000000000113687 L -19.917969 0.000000000000113687 Z M 0.000000000000056843 40 " transform="matrix(-1, 0.000000000000000122, 0.000000000000000122, 1, 500, 935)"/>
<path fill="none" stroke-width="6" stroke-linecap="butt" stroke-linejoin="miter" stroke="rgb(0%, 0%, 0%)" stroke-opacity="1" stroke-miterlimit="10" d="M -10.000545 0.50114 L 9.999285 0.501043 L 9.999383 20.500873 L -10.000448 20.500971 Z M -10.000545 0.50114 " transform="matrix(-0.866025, -0.5, -0.5, 0.866025, 335, 785.788383)"/>
<path fill="none" stroke-width="6" stroke-linecap="butt" stroke-linejoin="miter" stroke="rgb(0%, 0%, 0%)" stroke-opacity="1" stroke-miterlimit="10" d="M 0.000344889 139.999403 L 69.710296 0.000413725 L -69.710975 0.000762772 Z M 0.000344889 139.999403 " transform="matrix(-0.866025, -0.5, -0.5, 0.866025, 335, 785.788383)"/>
<path fill="none" stroke-width="10" stroke-linecap="butt" stroke-linejoin="miter" stroke="rgb(0%, 0%, 0%)" stroke-opacity="1" stroke-miterlimit="10" d="M 0.000954747 39.998346 L 19.918213 0.000643067 L -19.918648 0.000109996 Z M 0.000954747 39.998346 " transform="matrix(-0.866025, -0.5, -0.5, 0.866025, 322.5, 807.439018)"/>
<path fill="none" stroke-width="10" stroke-linecap="butt" stroke-linejoin="miter" stroke="rgb(0%, 0%, 0%)" stroke-opacity="1" stroke-miterlimit="10" d="M -0.000802802 40.00139 L 19.918409 0.00030432 L -19.918452 -0.000228751 Z M -0.000802802 40.00139 " transform="matrix(-0.866025, -0.5, -0.5, 0.866025, 302.5, 842.080034)"/>
<path fill="none" stroke-width="10" stroke-linecap="butt" stroke-linejoin="miter" stroke="rgb(0%, 0%, 0%)" stroke-opacity="1" stroke-miterlimit="10" d="M -0.000607226 40.001052 L 19.918604 -0.0000344269 L -19.918257 -0.000567498 Z M -0.000607226 40.001052 " transform="matrix(-0.866025, -0.5, -0.5, 0.866025, 282.5, 876.721051)"/>
<path fill="none" stroke-width="6" stroke-linecap="butt" stroke-linejoin="miter" stroke="rgb(0%, 0%, 0%)" stroke-opacity="1" stroke-miterlimit="10" d="M -9.999285 0.501043 L 10.000545 0.50114 L 10.000448 20.500971 L -9.999383 20.500873 Z M -9.999285 0.501043 " transform="matrix(-0.5, -0.866025, -0.866025, 0.5, 214.211617, 665)"/>
<path fill="none" stroke-width="6" stroke-linecap="butt" stroke-linejoin="miter" stroke="rgb(0%, 0%, 0%)" stroke-opacity="1" stroke-miterlimit="10" d="M -0.000344889 139.999403 L 69.710975 0.000762772 L -69.710296 0.000413725 Z M -0.000344889 139.999403 " transform="matrix(-0.5, -0.866025, -0.866025, 0.5, 214.211617, 665)"/>
<path fill="none" stroke-width="10" stroke-linecap="butt" stroke-linejoin="miter" stroke="rgb(0%, 0%, 0%)" stroke-opacity="1" stroke-miterlimit="10" d="M -0.000954747 39.998346 L 19.918648 0.000109996 L -19.918213 0.000643067 Z M -0.000954747 39.998346 " transform="matrix(-0.5, -0.866025, -0.866025, 0.5, 192.560982, 677.5)"/>
<path fill="none" stroke-width="10" stroke-linecap="butt" stroke-linejoin="miter" stroke="rgb(0%, 0%, 0%)" stroke-opacity="1" stroke-miterlimit="10" d="M 0.000802802 40.00139 L 19.918452 -0.000228751 L -19.918409 0.00030432 Z M 0.000802802 40.00139 " transform="matrix(-0.5, -0.866025, -0.866025, 0.5, 157.919966, 697.5)"/>
<path fill="none" stroke-width="10" stroke-linecap="butt" stroke-linejoin="miter" stroke="rgb(0%, 0%, 0%)" stroke-opacity="1" stroke-miterlimit="10" d="M 0.000607226 40.001052 L 19.918257 -0.000567498 L -19.918604 -0.0000344269 Z M 0.000607226 40.001052 " transform="matrix(-0.5, -0.866025, -0.866025, 0.5, 123.278949, 717.5)"/>
<path fill="none" stroke-width="6" stroke-linecap="butt" stroke-linejoin="miter" stroke="rgb(0%, 0%, 0%)" stroke-opacity="1" stroke-miterlimit="10" d="M -10 0.5 L 10 0.5 L 10 20.5 L -10 20.5 Z M -10 0.5 " transform="matrix(-0.000000000000000184, -1, -1, 0.000000000000000184, 170, 500)"/>
<path fill="none" stroke-width="6" stroke-linecap="butt" stroke-linejoin="miter" stroke="rgb(0%, 0%, 0%)" stroke-opacity="1" stroke-miterlimit="10" d="M 0.000000000000113687 140 L 69.710938 -0.000000000000028422 L -69.710937 0 Z M 0.000000000000113687 140 " transform="matrix(-0.000000000000000184, -1, -1, 0.000000000000000184, 170, 500)"/>
<path fill="none" stroke-width="10" stroke-linecap="butt" stroke-linejoin="miter" stroke="rgb(0%, 0%, 0%)" stroke-opacity="1" stroke-miterlimit="10" d="M 0.000000000000113687 40 L 19.917969 -0.000000000000028422 L -19.917969 -0.000000000000028422 Z M 0.000000000000113687 40 " transform="matrix(-0.000000000000000184, -1, -1, 0.000000000000000184, 145, 500)"/>
<path fill="none" stroke-width="10" stroke-linecap="butt" stroke-linejoin="miter" stroke="rgb(0%, 0%, 0%)" stroke-opacity="1" stroke-miterlimit="10" d="M 0.000000000000113687 40 L 19.917969 -0.000000000000028422 L -19.917969 -0.000000000000014211 Z M 0.000000000000113687 40 " transform="matrix(-0.000000000000000184, -1, -1, 0.000000000000000184, 105, 500)"/>
<path fill="none" stroke-width="10" stroke-linecap="butt" stroke-linejoin="miter" stroke="rgb(0%, 0%, 0%)" stroke-opacity="1" stroke-miterlimit="10" d="M 0.000000000000113687 40 L 19.917969 -0.000000000000028422 L -19.917969 -0.000000000000014211 Z M 0.000000000000113687 40 " transform="matrix(-0.000000000000000184, -1, -1, 0.000000000000000184, 65, 500)"/>
<path fill="none" stroke-width="6" stroke-linecap="butt" stroke-linejoin="miter" stroke="rgb(0%, 0%, 0%)" stroke-opacity="1" stroke-miterlimit="10" d="M -10.000545 0.50114 L 9.999285 0.501043 L 9.999383 20.500873 L -10.000448 20.500971 Z M -10.000545 0.50114 " transform="matrix(0.5, -0.866025, -0.866025, -0.5, 214.211617, 335)"/>
<path fill="none" stroke-width="6" stroke-linecap="butt" stroke-linejoin="miter" stroke="rgb(0%, 0%, 0%)" stroke-opacity="1" stroke-miterlimit="10" d="M 0.000344889 139.999403 L 69.710296 0.000413725 L -69.710975 0.000762772 Z M 0.000344889 139.999403 " transform="matrix(0.5, -0.866025, -0.866025, -0.5, 214.211617, 335)"/>
<path fill="none" stroke-width="10" stroke-linecap="butt" stroke-linejoin="miter" stroke="rgb(0%, 0%, 0%)" stroke-opacity="1" stroke-miterlimit="10" d="M 0.000954747 39.998346 L 19.918213 0.000643067 L -19.918648 0.000109996 Z M 0.000954747 39.998346 " transform="matrix(0.5, -0.866025, -0.866025, -0.5, 192.560982, 322.5)"/>
<path fill="none" stroke-width="10" stroke-linecap="butt" stroke-linejoin="miter" stroke="rgb(0%, 0%, 0%)" stroke-opacity="1" stroke-miterlimit="10" d="M -0.000802802 40.00139 L 19.918409 0.00030432 L -19.918452 -0.000228751 Z M -0.000802802 40.00139 " transform="matrix(0.5, -0.866025, -0.866025, -0.5, 157.919966, 302.5)"/>
<path fill="none" stroke-width="10" stroke-linecap="butt" stroke-linejoin="miter" stroke="rgb(0%, 0%, 0%)" stroke-opacity="1" stroke-miterlimit="10" d="M -0.000607226 40.001052 L 19.918604 -0.0000344269 L -19.918257 -0.000567498 Z M -0.000607226 40.001052 " transform="matrix(0.5, -0.866025, -0.866025, -0.5, 123.278949, 282.5)"/>
<path fill="none" stroke-width="6" stroke-linecap="butt" stroke-linejoin="miter" stroke="rgb(0%, 0%, 0%)" stroke-opacity="1" stroke-miterlimit="10" d="M -9.999285 0.501043 L 10.000545 0.50114 L 10.000448 20.500971 L -9.999383 20.500873 Z M -9.999285 0.501043 " transform="matrix(0.866025, -0.5, -0.5, -0.866025, 335, 214.211617)"/>
<path fill="none" stroke-width="6" stroke-linecap="butt" stroke-linejoin="miter" stroke="rgb(0%, 0%, 0%)" stroke-opacity="1" stroke-miterlimit="10" d="M -0.000344889 139.999403 L 69.710975 0.000762772 L -69.710296 0.000413725 Z M -0.000344889 139.999403 " transform="matrix(0.866025, -0.5, -0.5, -0.866025, 335, 214.211617)"/>
<path fill="none" stroke-width="10" stroke-linecap="butt" stroke-linejoin="miter" stroke="rgb(0%, 0%, 0%)" stroke-opacity="1" stroke-miterlimit="10" d="M -0.000954747 39.998346 L 19.918648 0.000109996 L -19.918213 0.000643067 Z M -0.000954747 39.998346 " transform="matrix(0.866025, -0.5, -0.5, -0.866025, 322.5, 192.560982)"/>
<path fill="none" stroke-width="10" stroke-linecap="butt" stroke-linejoin="miter" stroke="rgb(0%, 0%, 0%)" stroke-opacity="1" stroke-miterlimit="10" d="M 0.000802802 40.00139 L 19.918452 -0.000228751 L -19.918409 0.00030432 Z M 0.000802802 40.00139 " transform="matrix(0.866025, -0.5, -0.5, -0.866025, 302.5, 157.919966)"/>
<path fill="none" stroke-width="10" stroke-linecap="butt" stroke-linejoin="miter" stroke="rgb(0%, 0%, 0%)" stroke-opacity="1" stroke-miterlimit="10" d="M 0.000607226 40.001052 L 19.918257 -0.000567498 L -19.918604 -0.0000344269 Z M 0.000607226 40.001052 " transform="matrix(0.866025, -0.5, -0.5, -0.866025, 282.5, 123.278949)"/>
<path fill="none" stroke-width="15" stroke-linecap="butt" stroke-linejoin="miter" stroke="rgb(0%, 0%, 0%)" stroke-opacity="1" stroke-miterlimit="10" d="M 25.000265 0.00111696 C 24.999429 13.807719 13.807764 24.999757 0.00116128 24.998922 C -13.809214 24.999097 -25.001252 13.807432 -25.000417 0.000829505 C -24.999581 -13.805773 -13.807916 -24.997811 0.00144873 -25.001759 C 13.808051 -25.000924 25.0011 -13.805485 25.000265 0.00111696 " transform="matrix(0.965926, -0.258819, -0.258819, -0.965926, 401.648763, 132.948186)"/>
<path fill="none" stroke-width="10" stroke-linecap="butt" stroke-linejoin="miter" stroke="rgb(0%, 0%, 0%)" stroke-opacity="1" stroke-miterlimit="10" d="M 42.498438 -0.000453255 C 42.499106 23.47102 23.471442 42.501211 -0.0000306408 42.501879 C -23.472515 42.498774 -42.498933 23.4701 -42.499601 -0.00137343 C -42.500269 -23.472847 -23.471595 -42.499264 -0.000121482 -42.499933 C 23.471352 -42.500601 42.501543 -23.472937 42.498438 -0.000453255 " transform="matrix(0.965926, -0.258819, -0.258819, -0.965926, 401.648763, 132.948186)"/>
<path fill="none" stroke-width="15" stroke-linecap="butt" stroke-linejoin="miter" stroke="rgb(0%, 0%, 0%)" stroke-opacity="1" stroke-miterlimit="10" d="M 25.000417 0.000829505 C 25.001252 13.807432 13.809214 24.999097 -0.00116128 24.998922 C -13.807764 24.999757 -24.999429 13.807719 -25.000265 0.00111696 C -25.0011 -13.805485 -13.808051 -25.000924 -0.00144873 -25.001759 C 13.807916 -24.997811 24.999581 -13.805773 25.000417 0.000829505 " transform="matrix(0.965926, 0.258819, 0.258819, -0.965926, 598.351237, 132.948186)"/>
<path fill="none" stroke-width="10" stroke-linecap="butt" stroke-linejoin="miter" stroke="rgb(0%, 0%, 0%)" stroke-opacity="1" stroke-miterlimit="10" d="M 42.499601 -0.00137343 C 42.498933 23.4701 23.472515 42.498774 0.0000306408 42.501879 C -23.471442 42.501211 -42.499106 23.47102 -42.498438 -0.000453255 C -42.501543 -23.472937 -23.471352 -42.500601 0.000121482 -42.499933 C 23.471595 -42.499264 42.500269 -23.472847 42.499601 -0.00137343 " transform="matrix(0.965926, 0.258819, 0.258819, -0.965926, 598.351237, 132.948186)"/>
<path fill="none" stroke-width="15" stroke-linecap="butt" stroke-linejoin="miter" stroke="rgb(0%, 0%, 0%)" stroke-opacity="1" stroke-miterlimit="10" d="M 25.000092 0.000841491 C 25.000092 13.805997 13.807917 24.998171 0 25.000933 C -13.807917 24.998171 -25.000092 13.805997 -25.000092 0.000841491 C -24.99733 -13.807076 -13.805155 -24.99925 0 -24.99925 C 13.805155 -24.99925 24.99733 -13.807076 25.000092 0.000841491 " transform="matrix(0.707107, 0.707107, 0.707107, -0.707107, 768.700577, 231.299423)"/>
<path fill="none" stroke-width="10" stroke-linecap="butt" stroke-linejoin="miter" stroke="rgb(0%, 0%, 0%)" stroke-opacity="1" stroke-miterlimit="10" d="M 42.500985 0.000841491 C 42.500985 23.473472 23.472631 42.501826 0 42.501826 C -23.472631 42.501826 -42.500985 23.473472 -42.500985 0.000841491 C -42.500985 -23.471789 -23.472631 -42.500143 0 -42.500143 C 23.472631 -42.500143 42.500985 -23.471789 42.500985 0.000841491 " transform="matrix(0.707107, 0.707107, 0.707107, -0.707107, 768.700577, 231.299423)"/>
<path fill="none" stroke-width="15" stroke-linecap="butt" stroke-linejoin="miter" stroke="rgb(0%, 0%, 0%)" stroke-opacity="1" stroke-miterlimit="10" d="M 25.000265 0.00111696 C 24.999429 13.807719 13.807764 24.999757 0.00116128 24.998922 C -13.809214 24.999097 -25.001252 13.807432 -25.000417 0.000829505 C -24.999581 -13.805773 -13.807916 -24.997811 0.00144873 -25.001759 C 13.808051 -25.000924 25.0011 -13.805485 25.000265 0.00111696 " transform="matrix(0.258819, 0.965926, 0.965926, -0.258819, 867.051814, 401.648763)"/>
<path fill="none" stroke-width="10" stroke-linecap="butt" stroke-linejoin="miter" stroke="rgb(0%, 0%, 0%)" stroke-opacity="1" stroke-miterlimit="10" d="M 42.498438 -0.000453255 C 42.499106 23.47102 23.471442 42.501211 -0.0000306408 42.501879 C -23.472515 42.498774 -42.498933 23.4701 -42.499601 -0.00137343 C -42.500269 -23.472847 -23.471595 -42.499264 -0.000121482 -42.499933 C 23.471352 -42.500601 42.501543 -23.472937 42.498438 -0.000453255 " transform="matrix(0.258819, 0.965926, 0.965926, -0.258819, 867.051814, 401.648763)"/>
<path fill="none" stroke-width="15" stroke-linecap="butt" stroke-linejoin="miter" stroke="rgb(0%, 0%, 0%)" stroke-opacity="1" stroke-miterlimit="10" d="M 25.000417 0.000829505 C 25.001252 13.807432 13.809214 24.999097 -0.00116128 24.998922 C -13.807764 24.999757 -24.999429 13.807719 -25.000265 0.00111696 C -25.0011 -13.805485 -13.808051 -25.000924 -0.00144873 -25.001759 C 13.807916 -24.997811 24.999581 -13.805773 25.000417 0.000829505 " transform="matrix(-0.258819, 0.965926, 0.965926, 0.258819, 867.051814, 598.351237)"/>
<path fill="none" stroke-width="10" stroke-linecap="butt" stroke-linejoin="miter" stroke="rgb(0%, 0%, 0%)" stroke-opacity="1" stroke-miterlimit="10" d="M 42.499601 -0.00137343 C 42.498933 23.4701 23.472515 42.498774 0.0000306408 42.501879 C -23.471442 42.501211 -42.499106 23.47102 -42.498438 -0.000453255 C -42.501543 -23.472937 -23.471352 -42.500601 0.000121482 -42.499933 C 23.471595 -42.499264 42.500269 -23.472847 42.499601 -0.00137343 " transform="matrix(-0.258819, 0.965926, 0.965926, 0.258819, 867.051814, 598.351237)"/>
<path fill="none" stroke-width="15" stroke-linecap="butt" stroke-linejoin="miter" stroke="rgb(0%, 0%, 0%)" stroke-opacity="1" stroke-miterlimit="10" d="M 25.000092 0.000841491 C 25.000092 13.805997 13.807917 24.998171 0.000000000000284217 25.000933 C -13.807917 24.998171 -25.000092 13.805997 -25.000092 0.000841491 C -24.99733 -13.807076 -13.805155 -24.99925 0.00000000000017053 -24.99925 C 13.805155 -24.99925 24.99733 -13.807076 25.000092 0.000841491 " transform="matrix(-0.707107, 0.707107, 0.707107, 0.707107, 768.700577, 768.700577)"/>
<path fill="none" stroke-width="10" stroke-linecap="butt" stroke-linejoin="miter" stroke="rgb(0%, 0%, 0%)" stroke-opacity="1" stroke-miterlimit="10" d="M 42.500985 0.000841491 C 42.500985 23.473472 23.472631 42.501826 0.000000000000284217 42.501826 C -23.472631 42.501826 -42.500985 23.473472 -42.500985 0.000841491 C -42.500985 -23.471789 -23.472631 -42.500143 0.00000000000017053 -42.500143 C 23.472631 -42.500143 42.500985 -23.471789 42.500985 0.000841491 " transform="matrix(-0.707107, 0.707107, 0.707107, 0.707107, 768.700577, 768.700577)"/>
<path fill="none" stroke-width="15" stroke-linecap="butt" stroke-linejoin="miter" stroke="rgb(0%, 0%, 0%)" stroke-opacity="1" stroke-miterlimit="10" d="M 25.000265 0.00111696 C 24.999429 13.807719 13.807764 24.999757 0.00116128 24.998922 C -13.809214 24.999097 -25.001252 13.807432 -25.000417 0.000829505 C -24.999581 -13.805773 -13.807916 -24.997811 0.00144873 -25.001759 C 13.808051 -25.000924 25.0011 -13.805485 25.000265 0.00111696 " transform="matrix(-0.965926, 0.258819, 0.258819, 0.965926, 598.351237, 867.051814)"/>
<path fill="none" stroke-width="10" stroke-linecap="butt" stroke-linejoin="miter" stroke="rgb(0%, 0%, 0%)" stroke-opacity="1" stroke-miterlimit="10" d="M 42.498438 -0.000453255 C 42.499106 23.47102 23.471442 42.501211 -0.0000306408 42.501879 C -23.472515 42.498774 -42.498933 23.4701 -42.499601 -0.00137343 C -42.500269 -23.472847 -23.471595 -42.499264 -0.000121482 -42.499933 C 23.471352 -42.500601 42.501543 -23.472937 42.498438 -0.000453255 " transform="matrix(-0.965926, 0.258819, 0.258819, 0.965926, 598.351237, 867.051814)"/>
<path fill="none" stroke-width="15" stroke-linecap="butt" stroke-linejoin="miter" stroke="rgb(0%, 0%, 0%)" stroke-opacity="1" stroke-miterlimit="10" d="M 25.000417 0.000829505 C 25.001252 13.807432 13.809214 24.999097 -0.00116128 24.998922 C -13.807764 24.999757 -24.999429 13.807719 -25.000265 0.00111696 C -25.0011 -13.805485 -13.808051 -25.000924 -0.00144873 -25.001759 C 13.807916 -24.997811 24.999581 -13.805773 25.000417 0.000829505 " transform="matrix(-0.965926, -0.258819, -0.258819, 0.965926, 401.648763, 867.051814)"/>
<path fill="none" stroke-width="10" stroke-linecap="butt" stroke-linejoin="miter" stroke="rgb(0%, 0%, 0%)" stroke-opacity="1" stroke-miterlimit="10" d="M 42.499601 -0.00137343 C 42.498933 23.4701 23.472515 42.498774 0.0000306408 42.501879 C -23.471442 42.501211 -42.499106 23.47102 -42.498438 -0.000453255 C -42.501543 -23.472937 -23.471352 -42.500601 0.000121482 -42.499933 C 23.471595 -42.499264 42.500269 -23.472847 42.499601 -0.00137343 " transform="matrix(-0.965926, -0.258819, -0.258819, 0.965926, 401.648763, 867.051814)"/>
<path fill="none" stroke-width="15" stroke-linecap="butt" stroke-linejoin="miter" stroke="rgb(0%, 0%, 0%)" stroke-opacity="1" stroke-miterlimit="10" d="M 25.000092 0.000841491 C 25.000092 13.805997 13.807917 24.998171 0.000000000000227374 25.000933 C -13.807917 24.998171 -25.000092 13.805997 -25.000092 0.000841491 C -24.99733 -13.807076 -13.805155 -24.99925 0.000000000000227374 -24.99925 C 13.805155 -24.99925 24.99733 -13.807076 25.000092 0.000841491 " transform="matrix(-0.707107, -0.707107, -0.707107, 0.707107, 231.299423, 768.700577)"/>
<path fill="none" stroke-width="10" stroke-linecap="butt" stroke-linejoin="miter" stroke="rgb(0%, 0%, 0%)" stroke-opacity="1" stroke-miterlimit="10" d="M 42.500985 0.000841491 C 42.500985 23.473472 23.472631 42.501826 0.000000000000227374 42.501826 C -23.472631 42.501826 -42.500985 23.473472 -42.500985 0.000841491 C -42.500985 -23.471789 -23.472631 -42.500143 0.000000000000227374 -42.500143 C 23.472631 -42.500143 42.500985 -23.471789 42.500985 0.000841491 " transform="matrix(-0.707107, -0.707107, -0.707107, 0.707107, 231.299423, 768.700577)"/>
<path fill="none" stroke-width="15" stroke-linecap="butt" stroke-linejoin="miter" stroke="rgb(0%, 0%, 0%)" stroke-opacity="1" stroke-miterlimit="10" d="M 25.000265 0.00111696 C 24.999429 13.807719 13.807764 24.999757 0.00116128 24.998922 C -13.809214 24.999097 -25.001252 13.807432 -25.000417 0.000829505 C -24.999581 -13.805773 -13.807916 -24.997811 0.00144873 -25.001759 C 13.808051 -25.000924 25.0011 -13.805485 25.000265 0.00111696 " transform="matrix(-0.258819, -0.965926, -0.965926, 0.258819, 132.948186, 598.351237)"/>
<path fill="none" stroke-width="10" stroke-linecap="butt" stroke-linejoin="miter" stroke="rgb(0%, 0%, 0%)" stroke-opacity="1" stroke-miterlimit="10" d="M 42.498438 -0.000453255 C 42.499106 23.47102 23.471442 42.501211 -0.0000306408 42.501879 C -23.472515 42.498774 -42.498933 23.4701 -42.499601 -0.00137343 C -42.500269 -23.472847 -23.471595 -42.499264 -0.000121482 -42.499933 C 23.471352 -42.500601 42.501543 -23.472937 42.498438 -0.000453255 " transform="matrix(-0.258819, -0.965926, -0.965926, 0.258819, 132.948186, 598.351237)"/>
<path fill="none" stroke-width="15" stroke-linecap="butt" stroke-linejoin="miter" stroke="rgb(0%, 0%, 0%)" stroke-opacity="1" stroke-miterlimit="10" d="M 25.000417 0.000829505 C 25.001252 13.807432 13.809214 24.999097 -0.00116128 24.998922 C -13.807764 24.999757 -24.999429 13.807719 -25.000265 0.00111696 C -25.0011 -13.805485 -13.808051 -25.000924 -0.00144873 -25.001759 C 13.807916 -24.997811 24.999581 -13.805773 25.000417 0.000829505 " transform="matrix(0.258819, -0.965926, -0.965926, -0.258819, 132.948186, 401.648763)"/>
<path fill="none" stroke-width="10" stroke-linecap="butt" stroke-linejoin="miter" stroke="rgb(0%, 0%, 0%)" stroke-opacity="1" stroke-miterlimit="10" d="M 42.499601 -0.00137343 C 42.498933 23.4701 23.472515 42.498774 0.0000306408 42.501879 C -23.471442 42.501211 -42.499106 23.47102 -42.498438 -0.000453255 C -42.501543 -23.472937 -23.471352 -42.500601 0.000121482 -42.499933 C 23.471595 -42.499264 42.500269 -23.472847 42.499601 -0.00137343 " transform="matrix(0.258819, -0.965926, -0.965926, -0.258819, 132.948186, 401.648763)"/>
<path fill="none" stroke-width="15" stroke-linecap="butt" stroke-linejoin="miter" stroke="rgb(0%, 0%, 0%)" stroke-opacity="1" stroke-miterlimit="10" d="M 25.000092 0.000841491 C 25.000092 13.805997 13.807917 24.998171 0.000000000000085265 25.000933 C -13.807917 24.998171 -25.000092 13.805997 -25.000092 0.000841491 C -24.99733 -13.807076 -13.805155 -24.99925 0.000000000000085265 -24.99925 C 13.805155 -24.99925 24.99733 -13.807076 25.000092 0.000841491 " transform="matrix(0.707107, -0.707107, -0.707107, -0.707107, 231.299423, 231.299423)"/>
<path fill="none" stroke-width="10" stroke-linecap="butt" stroke-linejoin="miter" stroke="rgb(0%, 0%, 0%)" stroke-opacity="1" stroke-miterlimit="10" d="M 42.500985 0.000841491 C 42.500985 23.473472 23.472631 42.501826 0.000000000000113687 42.501826 C -23.472631 42.501826 -42.500985 23.473472 -42.500985 0.000841491 C -42.500985 -23.471789 -23.472631 -42.500143 0.000000000000085265 -42.500143 C 23.472631 -42.500143 42.500985 -23.471789 42.500985 0.000841491 " transform="matrix(0.707107, -0.707107, -0.707107, -0.707107, 231.299423, 231.299423)"/>
</svg>
