<?xml version="1.0" encoding="UTF-8"?>
<svg xmlns="http://www.w3.org/2000/svg" xmlns:xlink="http://www.w3.org/1999/xlink" width="1000" height="1000" viewBox="0 0 1000 1000">
<path fill="none" stroke-width="20" stroke-linecap="butt" stroke-linejoin="miter" stroke="rgb(0%, 0%, 0%)" stroke-opacity="1" stroke-miterlimit="10" d="M 40 0 C 40 22.089844 22.089844 40 0 40 C -22.089844 40 -40 22.089844 -40 0 C -40 -22.089844 -22.089844 -40 0 -40 C 22.089844 -40 40 -22.089844 40 0 M 100 0 L 50 -86.601562 L -50 -86.601562 L -100 0 L -50 86.601562 L 50 86.601562 L 100 0 L 600 0 M 0 86.601562 L 450 86.601562 L 600 0 L 450 -86.601562 L 0 -86.601562 M 50 86.601562 L 200 0 L 50 -86.601562 M 150 86.601562 L 300 0 L 150 -86.601562 M 250 86.601562 L 400 0 L 250 -86.601562 M 350 86.601562 L 500 0 L 350 -86.601562 " transform="matrix(1, 0, 0, -1, 250, 500)"/>
<path fill-rule="nonzero" fill="rgb(100%, 0%, 0%)" fill-opacity="1" d="M 504 500 C 504 494.667969 496 494.667969 496 500 C 496 505.332031 504 505.332031 504 500 "/>
</svg>
