<?xml version="1.0" encoding="UTF-8"?>
<svg xmlns="http://www.w3.org/2000/svg" xmlns:xlink="http://www.w3.org/1999/xlink" width="1000" height="1000" viewBox="0 0 1000 1000">
<defs>
<filter id="filter-remove-color-and-invert-alpha" x="0%" y="0%" width="100%" height="100%">
<feColorMatrix color-interpolation-filters="sRGB" values="0 0 0 0 1 0 0 0 0 1 0 0 0 0 1 0 0 0 -1 1"/>
</filter>
<filter id="filter-0" x="0%" y="0%" width="100%" height="100%">
<feImage xlink:href="#compositing-group-1" result="source" x="0" y="0" width="1200" height="1200"/>
<feImage xlink:href="#compositing-group-2" result="destination" x="0" y="0" width="1200" height="1200"/>
<feComposite in="source" in2="destination" operator="arithmetic" k1="0" k2="1" k3="1" k4="0" color-interpolation-filters="sRGB"/>
</filter>
<g id="compositing-group-0" transform="translate(100, 100)">
<rect x="-100" y="-100" width="1200" height="1200" fill="rgb(0%, 0%, 0%)" fill-opacity="0"/>
<path fill-rule="nonzero" fill="rgb(100%, 100%, 100%)" fill-opacity="1" d="M 460 430.71875 L 420 500 L 460 569.28125 L 860 569.28125 L 980 500 L 860 430.71875 "/>
</g>
<mask id="mask-0">
<use xlink:href="#compositing-group-0"/>
</mask>
<mask id="mask-1">
<use xlink:href="#compositing-group-0" filter="url(#filter-remove-color-and-invert-alpha)"/>
</mask>
<g id="compositing-group-1" mask="url(#mask-0)">
<g transform="translate(100, 100)">
</g>
</g>
<g id="compositing-group-2" mask="url(#mask-1)">
<g transform="translate(100, 100)">
<path fill-rule="nonzero" fill="rgb(100%, 0%, 0%)" fill-opacity="1" d="M 504 500 C 504 494.667969 496 494.667969 496 500 C 496 505.332031 504 505.332031 504 500 "/>
<path fill="none" stroke-width="8" stroke-linecap="butt" stroke-linejoin="miter" stroke="rgb(100%, 0%, 0%)" stroke-opacity="1" stroke-miterlimit="10" d="M -500 500 L 500 500 L 500 -500 L -500 -500 L -500 500 " transform="matrix(1, 0, 0, -1, 500, 500)"/>
<path fill="none" stroke-width="7.5" stroke-linecap="butt" stroke-linejoin="miter" stroke="rgb(0%, 0%, 0%)" stroke-opacity="1" stroke-miterlimit="10" d="M 495 0 C 495 176.847656 400.652344 340.257812 247.5 428.683594 C 94.347656 517.105469 -94.347656 517.105469 -247.5 428.683594 C -400.652344 340.257812 -495 176.847656 -495 0 C -495 -176.847656 -400.652344 -340.257812 -247.5 -428.683594 C -94.347656 -517.105469 94.347656 -517.105469 247.5 -428.683594 C 400.652344 -340.257812 495 -176.847656 495 0 " transform="matrix(1, 0, 0, -1, 500, 500)"/>
<path fill="none" stroke-width="15" stroke-linecap="butt" stroke-linejoin="miter" stroke="rgb(0%, 0%, 0%)" stroke-opacity="1" stroke-miterlimit="10" d="M 333.976562 63.710938 C 301.113281 235.984375 142.605469 354.996094 -31.996094 338.492188 C -206.601562 321.984375 -340 175.382812 -340 0 C -340 -175.382812 -206.601562 -321.984375 -31.996094 -338.492188 C 142.605469 -354.996094 301.113281 -235.984375 333.976562 -63.710938 " transform="matrix(1, 0, 0, -1, 500, 500)"/>
<path fill="none" stroke-width="15" stroke-linecap="butt" stroke-linejoin="miter" stroke="rgb(0%, 0%, 0%)" stroke-opacity="1" stroke-miterlimit="10" d="M 25 0 C 25 13.808594 13.808594 25 0 25 C -13.808594 25 -25 13.808594 -25 0 C -25 -13.808594 -13.808594 -25 0 -25 C 13.808594 -25 25 -13.808594 25 0 " transform="matrix(0.000000000000000061, 1, 1, -0.000000000000000061, 890, 500)"/>
<path fill="none" stroke-width="7.5" stroke-linecap="butt" stroke-linejoin="miter" stroke="rgb(0%, 0%, 0%)" stroke-opacity="1" stroke-miterlimit="10" d="M 42.5 0 C 42.5 23.472656 23.472656 42.5 0 42.5 C -23.472656 42.5 -42.5 23.472656 -42.5 0 C -42.5 -23.472656 -23.472656 -42.5 0 -42.5 C 23.472656 -42.5 42.5 -23.472656 42.5 0 " transform="matrix(0.000000000000000061, 1, 1, -0.000000000000000061, 890, 500)"/>
<path fill="none" stroke-width="15" stroke-linecap="butt" stroke-linejoin="miter" stroke="rgb(0%, 0%, 0%)" stroke-opacity="1" stroke-miterlimit="10" d="M 25.001433 0.000934456 C 25.000523 13.807199 13.807317 24.999088 -0.00090059 25.00156 C -13.807165 25.000649 -24.999054 13.807444 -25.001526 -0.0007742 C -25.000615 -13.807039 -13.80741 -24.998927 0.000808066 -25.0014 C 13.807073 -25.000489 24.998961 -13.807283 25.001433 0.000934456 " transform="matrix(-0.5, 0.866025, 0.866025, 0.5, 837.749907, 695)"/>
<path fill="none" stroke-width="7.5" stroke-linecap="butt" stroke-linejoin="miter" stroke="rgb(0%, 0%, 0%)" stroke-opacity="1" stroke-miterlimit="10" d="M 42.498748 -0.000615952 C 42.500335 23.473197 23.47251 42.50067 0.000649818 42.498874 C -23.473163 42.500462 -42.500636 23.472636 -42.498841 0.000776209 C -42.500428 -23.473037 -23.472603 -42.50051 -0.000742342 -42.498714 C 23.473071 -42.500301 42.500544 -23.472476 42.498748 -0.000615952 " transform="matrix(-0.5, 0.866025, 0.866025, 0.5, 837.749907, 695)"/>
<path fill="none" stroke-width="15" stroke-linecap="butt" stroke-linejoin="miter" stroke="rgb(0%, 0%, 0%)" stroke-opacity="1" stroke-miterlimit="10" d="M 25.001526 -0.0007742 C 24.999054 13.807444 13.807165 25.000649 0.00090059 25.00156 C -13.807317 24.999088 -25.000523 13.807199 -25.001433 0.000934456 C -24.998961 -13.807283 -13.807073 -25.000489 -0.000808066 -25.0014 C 13.80741 -24.998927 25.000615 -13.807039 25.001526 -0.0007742 " transform="matrix(-0.866025, 0.5, 0.5, 0.866025, 695, 837.749907)"/>
<path fill="none" stroke-width="7.5" stroke-linecap="butt" stroke-linejoin="miter" stroke="rgb(0%, 0%, 0%)" stroke-opacity="1" stroke-miterlimit="10" d="M 42.498841 0.000776209 C 42.500636 23.472636 23.473163 42.500462 -0.000649818 42.498874 C -23.47251 42.50067 -42.500335 23.473197 -42.498748 -0.000615952 C -42.500544 -23.472476 -23.473071 -42.500301 0.000742342 -42.498714 C 23.472603 -42.50051 42.500428 -23.473037 42.498841 0.000776209 " transform="matrix(-0.866025, 0.5, 0.5, 0.866025, 695, 837.749907)"/>
<path fill="none" stroke-width="15" stroke-linecap="butt" stroke-linejoin="miter" stroke="rgb(0%, 0%, 0%)" stroke-opacity="1" stroke-miterlimit="10" d="M 25 0.000000000000113687 C 25 13.808594 13.808594 25 0.000000000000056843 25 C -13.808594 25 -25 13.808594 -25 0.000000000000113687 C -25 -13.808594 -13.808594 -25 0.000000000000056843 -25 C 13.808594 -25 25 -13.808594 25 0.000000000000113687 " transform="matrix(-1, 0.000000000000000122, 0.000000000000000122, 1, 500, 890)"/>
<path fill="none" stroke-width="7.5" stroke-linecap="butt" stroke-linejoin="miter" stroke="rgb(0%, 0%, 0%)" stroke-opacity="1" stroke-miterlimit="10" d="M 42.5 0 C 42.5 23.472656 23.472656 42.5 0.000000000000056843 42.5 C -23.472656 42.5 -42.5 23.472656 -42.5 0.000000000000113687 C -42.5 -23.472656 -23.472656 -42.5 0.000000000000056843 -42.5 C 23.472656 -42.5 42.5 -23.472656 42.5 0 " transform="matrix(-1, 0.000000000000000122, 0.000000000000000122, 1, 500, 890)"/>
<path fill="none" stroke-width="15" stroke-linecap="butt" stroke-linejoin="miter" stroke="rgb(0%, 0%, 0%)" stroke-opacity="1" stroke-miterlimit="10" d="M 25.001433 0.000934456 C 25.000523 13.807199 13.807317 24.999088 -0.00090059 25.00156 C -13.807165 25.000649 -24.999054 13.807444 -25.001526 -0.0007742 C -25.000615 -13.807039 -13.80741 -24.998927 0.000808066 -25.0014 C 13.807073 -25.000489 24.998961 -13.807283 25.001433 0.000934456 " transform="matrix(-0.866025, -0.5, -0.5, 0.866025, 305, 837.749907)"/>
<path fill="none" stroke-width="7.5" stroke-linecap="butt" stroke-linejoin="miter" stroke="rgb(0%, 0%, 0%)" stroke-opacity="1" stroke-miterlimit="10" d="M 42.498748 -0.000615952 C 42.500335 23.473197 23.47251 42.50067 0.000649818 42.498874 C -23.473163 42.500462 -42.500636 23.472636 -42.498841 0.000776209 C -42.500428 -23.473037 -23.472603 -42.50051 -0.000742342 -42.498714 C 23.473071 -42.500301 42.500544 -23.472476 42.498748 -0.000615952 " transform="matrix(-0.866025, -0.5, -0.5, 0.866025, 305, 837.749907)"/>
<path fill="none" stroke-width="15" stroke-linecap="butt" stroke-linejoin="miter" stroke="rgb(0%, 0%, 0%)" stroke-opacity="1" stroke-miterlimit="10" d="M 25.001526 -0.0007742 C 24.999054 13.807444 13.807165 25.000649 0.00090059 25.00156 C -13.807317 24.999088 -25.000523 13.807199 -25.001433 0.000934456 C -24.998961 -13.807283 -13.807073 -25.000489 -0.000808066 -25.0014 C 13.80741 -24.998927 25.000615 -13.807039 25.001526 -0.0007742 " transform="matrix(-0.5, -0.866025, -0.866025, 0.5, 162.250093, 695)"/>
<path fill="none" stroke-width="7.5" stroke-linecap="butt" stroke-linejoin="miter" stroke="rgb(0%, 0%, 0%)" stroke-opacity="1" stroke-miterlimit="10" d="M 42.498841 0.000776209 C 42.500636 23.472636 23.473163 42.500462 -0.000649818 42.498874 C -23.47251 42.50067 -42.500335 23.473197 -42.498748 -0.000615952 C -42.500544 -23.472476 -23.473071 -42.500301 0.000742342 -42.498714 C 23.472603 -42.50051 42.500428 -23.473037 42.498841 0.000776209 " transform="matrix(-0.5, -0.866025, -0.866025, 0.5, 162.250093, 695)"/>
<path fill="none" stroke-width="15" stroke-linecap="butt" stroke-linejoin="miter" stroke="rgb(0%, 0%, 0%)" stroke-opacity="1" stroke-miterlimit="10" d="M 25 -0.000000000000028422 C 25 13.808594 13.808594 25 0.000000000000113687 25 C -13.808594 25 -25 13.808594 -25 -0.000000000000014211 C -25 -13.808594 -13.808594 -25 0.000000000000113687 -25 C 13.808594 -25 25 -13.808594 25 -0.000000000000028422 " transform="matrix(-0.000000000000000184, -1, -1, 0.000000000000000184, 110, 500)"/>
<path fill="none" stroke-width="7.5" stroke-linecap="butt" stroke-linejoin="miter" stroke="rgb(0%, 0%, 0%)" stroke-opacity="1" stroke-miterlimit="10" d="M 42.5 -0.000000000000028422 C 42.5 23.472656 23.472656 42.5 0.000000000000113687 42.5 C -23.472656 42.5 -42.5 23.472656 -42.5 -0.000000000000014211 C -42.5 -23.472656 -23.472656 -42.5 0.000000000000113687 -42.5 C 23.472656 -42.5 42.5 -23.472656 42.5 -0.000000000000028422 " transform="matrix(-0.000000000000000184, -1, -1, 0.000000000000000184, 110, 500)"/>
<path fill="none" stroke-width="15" stroke-linecap="butt" stroke-linejoin="miter" stroke="rgb(0%, 0%, 0%)" stroke-opacity="1" stroke-miterlimit="10" d="M 25.001433 0.000934456 C 25.000523 13.807199 13.807317 24.999088 -0.00090059 25.00156 C -13.807165 25.000649 -24.999054 13.807444 -25.001526 -0.0007742 C -25.000615 -13.807039 -13.80741 -24.998927 0.000808066 -25.0014 C 13.807073 -25.000489 24.998961 -13.807283 25.001433 0.000934456 " transform="matrix(0.5, -0.866025, -0.866025, -0.5, 162.250093, 305)"/>
<path fill="none" stroke-width="7.5" stroke-linecap="butt" stroke-linejoin="miter" stroke="rgb(0%, 0%, 0%)" stroke-opacity="1" stroke-miterlimit="10" d="M 42.498748 -0.000615952 C 42.500335 23.473197 23.47251 42.50067 0.000649818 42.498874 C -23.473163 42.500462 -42.500636 23.472636 -42.498841 0.000776209 C -42.500428 -23.473037 -23.472603 -42.50051 -0.000742342 -42.498714 C 23.473071 -42.500301 42.500544 -23.472476 42.498748 -0.000615952 " transform="matrix(0.5, -0.866025, -0.866025, -0.5, 162.250093, 305)"/>
<path fill="none" stroke-width="15" stroke-linecap="butt" stroke-linejoin="miter" stroke="rgb(0%, 0%, 0%)" stroke-opacity="1" stroke-miterlimit="10" d="M 25.001526 -0.0007742 C 24.999054 13.807444 13.807165 25.000649 0.00090059 25.00156 C -13.807317 24.999088 -25.000523 13.807199 -25.001433 0.000934456 C -24.998961 -13.807283 -13.807073 -25.000489 -0.000808066 -25.0014 C 13.80741 -24.998927 25.000615 -13.807039 25.001526 -0.0007742 " transform="matrix(0.866025, -0.5, -0.5, -0.866025, 305, 162.250093)"/>
<path fill="none" stroke-width="7.5" stroke-linecap="butt" stroke-linejoin="miter" stroke="rgb(0%, 0%, 0%)" stroke-opacity="1" stroke-miterlimit="10" d="M 42.498841 0.000776209 C 42.500636 23.472636 23.473163 42.500462 -0.000649818 42.498874 C -23.47251 42.50067 -42.500335 23.473197 -42.498748 -0.000615952 C -42.500544 -23.472476 -23.473071 -42.500301 0.000742342 -42.498714 C 23.472603 -42.50051 42.500428 -23.473037 42.498841 0.000776209 " transform="matrix(0.866025, -0.5, -0.5, -0.866025, 305, 162.250093)"/>
<path fill="none" stroke-width="15" stroke-linecap="butt" stroke-linejoin="miter" stroke="rgb(0%, 0%, 0%)" stroke-opacity="1" stroke-miterlimit="10" d="M 25 -0.000000000000014211 C 25 13.808594 13.808594 25 0.000000000000113687 25 C -13.808594 25 -25 13.808594 -25 0 C -25 -13.808594 -13.808594 -25 0.000000000000056843 -25 C 13.808594 -25 25 -13.808594 25 -0.000000000000014211 " transform="matrix(1, -0.000000000000000245, -0.000000000000000245, -1, 500, 110)"/>
<path fill="none" stroke-width="7.5" stroke-linecap="butt" stroke-linejoin="miter" stroke="rgb(0%, 0%, 0%)" stroke-opacity="1" stroke-miterlimit="10" d="M 42.5 -0.000000000000014211 C 42.5 23.472656 23.472656 42.5 0.000000000000113687 42.5 C -23.472656 42.5 -42.5 23.472656 -42.5 0 C -42.5 -23.472656 -23.472656 -42.5 0.000000000000056843 -42.5 C 23.472656 -42.5 42.5 -23.472656 42.5 -0.000000000000014211 " transform="matrix(1, -0.000000000000000245, -0.000000000000000245, -1, 500, 110)"/>
<path fill="none" stroke-width="15" stroke-linecap="butt" stroke-linejoin="miter" stroke="rgb(0%, 0%, 0%)" stroke-opacity="1" stroke-miterlimit="10" d="M 25.001433 0.000934456 C 25.000523 13.807199 13.807317 24.999088 -0.00090059 25.00156 C -13.807165 25.000649 -24.999054 13.807444 -25.001526 -0.0007742 C -25.000615 -13.807039 -13.80741 -24.998927 0.000808066 -25.0014 C 13.807073 -25.000489 24.998961 -13.807283 25.001433 0.000934456 " transform="matrix(0.866025, 0.5, 0.5, -0.866025, 695, 162.250093)"/>
<path fill="none" stroke-width="7.5" stroke-linecap="butt" stroke-linejoin="miter" stroke="rgb(0%, 0%, 0%)" stroke-opacity="1" stroke-miterlimit="10" d="M 42.498748 -0.000615952 C 42.500335 23.473197 23.47251 42.50067 0.000649818 42.498874 C -23.473163 42.500462 -42.500636 23.472636 -42.498841 0.000776209 C -42.500428 -23.473037 -23.472603 -42.50051 -0.000742342 -42.498714 C 23.473071 -42.500301 42.500544 -23.472476 42.498748 -0.000615952 " transform="matrix(0.866025, 0.5, 0.5, -0.866025, 695, 162.250093)"/>
<path fill="none" stroke-width="15" stroke-linecap="butt" stroke-linejoin="miter" stroke="rgb(0%, 0%, 0%)" stroke-opacity="1" stroke-miterlimit="10" d="M 25.001526 -0.0007742 C 24.999054 13.807444 13.807165 25.000649 0.00090059 25.00156 C -13.807317 24.999088 -25.000523 13.807199 -25.001433 0.000934456 C -24.998961 -13.807283 -13.807073 -25.000489 -0.000808066 -25.0014 C 13.80741 -24.998927 25.000615 -13.807039 25.001526 -0.0007742 " transform="matrix(0.5, 0.866025, 0.866025, -0.5, 837.749907, 305)"/>
<path fill="none" stroke-width="7.5" stroke-linecap="butt" stroke-linejoin="miter" stroke="rgb(0%, 0%, 0%)" stroke-opacity="1" stroke-miterlimit="10" d="M 42.498841 0.000776209 C 42.500636 23.472636 23.473163 42.500462 -0.000649818 42.498874 C -23.47251 42.50067 -42.500335 23.473197 -42.498748 -0.000615952 C -42.500544 -23.472476 -23.473071 -42.500301 0.000742342 -42.498714 C 23.472603 -42.50051 42.500428 -23.473037 42.498841 0.000776209 " transform="matrix(0.5, 0.866025, 0.866025, -0.5, 837.749907, 305)"/>
<path fill="none" stroke-width="7.5" stroke-linecap="butt" stroke-linejoin="miter" stroke="rgb(0%, 0%, 0%)" stroke-opacity="1" stroke-miterlimit="10" d="M 0.00125212 150.000734 L 69.944745 0.00177878 L -69.947051 0.00139567 Z M 0.00125212 150.000734 " transform="matrix(0.965926, -0.258819, -0.258819, -0.965926, 412.001525, 171.585219)"/>
<path fill="none" stroke-width="7.5" stroke-linecap="butt" stroke-linejoin="miter" stroke="rgb(0%, 0%, 0%)" stroke-opacity="1" stroke-miterlimit="10" d="M -0.000581567 39.999087 L 19.919403 0.0000111017 L -19.918947 -0.0016208 Z M -0.000581567 39.999087 " transform="matrix(0.965926, -0.258819, -0.258819, -0.965926, 412.001525, 171.585219)"/>
<path fill="none" stroke-width="7.5" stroke-linecap="butt" stroke-linejoin="miter" stroke="rgb(0%, 0%, 0%)" stroke-opacity="1" stroke-miterlimit="10" d="M -0.00020327 40.000217 L 19.919781 0.00114154 L -19.918569 -0.000490367 Z M -0.00020327 40.000217 " transform="matrix(0.965926, -0.258819, -0.258819, -0.965926, 402.942858, 137.777815)"/>
<path fill="none" stroke-width="7.5" stroke-linecap="butt" stroke-linejoin="miter" stroke="rgb(0%, 0%, 0%)" stroke-opacity="1" stroke-miterlimit="10" d="M 0.000175028 40.001348 L 19.919148 -0.00150117 L -19.91819 0.000640071 Z M 0.000175028 40.001348 " transform="matrix(0.965926, -0.258819, -0.258819, -0.965926, 393.884192, 103.970411)"/>
<path fill="none" stroke-width="7.5" stroke-linecap="butt" stroke-linejoin="miter" stroke="rgb(0%, 0%, 0%)" stroke-opacity="1" stroke-miterlimit="10" d="M -0.000457686 39.998705 L 19.919527 -0.000370732 L -19.917812 0.00177051 Z M -0.000457686 39.998705 " transform="matrix(0.965926, -0.258819, -0.258819, -0.965926, 384.825525, 70.163007)"/>
<path fill="none" stroke-width="7.5" stroke-linecap="butt" stroke-linejoin="miter" stroke="rgb(0%, 0%, 0%)" stroke-opacity="1" stroke-miterlimit="10" d="M -0.00125212 150.000734 L 69.947051 0.00139567 L -69.944745 0.00177878 Z M -0.00125212 150.000734 " transform="matrix(0.965926, 0.258819, 0.258819, -0.965926, 587.998475, 171.585219)"/>
<path fill="none" stroke-width="7.5" stroke-linecap="butt" stroke-linejoin="miter" stroke="rgb(0%, 0%, 0%)" stroke-opacity="1" stroke-miterlimit="10" d="M 0.000581567 39.999087 L 19.918947 -0.0016208 L -19.919403 0.0000111017 Z M 0.000581567 39.999087 " transform="matrix(0.965926, 0.258819, 0.258819, -0.965926, 587.998475, 171.585219)"/>
<path fill="none" stroke-width="7.5" stroke-linecap="butt" stroke-linejoin="miter" stroke="rgb(0%, 0%, 0%)" stroke-opacity="1" stroke-miterlimit="10" d="M 0.00020327 40.000217 L 19.918569 -0.000490367 L -19.919781 0.00114154 Z M 0.00020327 40.000217 " transform="matrix(0.965926, 0.258819, 0.258819, -0.965926, 597.057142, 137.777815)"/>
<path fill="none" stroke-width="7.5" stroke-linecap="butt" stroke-linejoin="miter" stroke="rgb(0%, 0%, 0%)" stroke-opacity="1" stroke-miterlimit="10" d="M -0.000175028 40.001348 L 19.91819 0.000640071 L -19.919148 -0.00150117 Z M -0.000175028 40.001348 " transform="matrix(0.965926, 0.258819, 0.258819, -0.965926, 606.115808, 103.970411)"/>
<path fill="none" stroke-width="7.5" stroke-linecap="butt" stroke-linejoin="miter" stroke="rgb(0%, 0%, 0%)" stroke-opacity="1" stroke-miterlimit="10" d="M 0.000457686 39.998705 L 19.917812 0.00177051 L -19.919527 -0.000370732 Z M 0.000457686 39.998705 " transform="matrix(0.965926, 0.258819, 0.258819, -0.965926, 615.174475, 70.163007)"/>
<path fill="none" stroke-width="7.5" stroke-linecap="butt" stroke-linejoin="miter" stroke="rgb(0%, 0%, 0%)" stroke-opacity="1" stroke-miterlimit="10" d="M 0 149.997378 L 69.945566 -0.000410091 L -69.945566 -0.000410091 Z M 0 149.997378 " transform="matrix(0.707107, 0.707107, 0.707107, -0.707107, 740.416306, 259.583694)"/>
<path fill="none" stroke-width="7.5" stroke-linecap="butt" stroke-linejoin="miter" stroke="rgb(0%, 0%, 0%)" stroke-opacity="1" stroke-miterlimit="10" d="M 0 39.998079 L 19.917762 -0.000410091 L -19.917762 -0.000410091 Z M 0 39.998079 " transform="matrix(0.707107, 0.707107, 0.707107, -0.707107, 740.416306, 259.583694)"/>
<path fill="none" stroke-width="7.5" stroke-linecap="butt" stroke-linejoin="miter" stroke="rgb(0%, 0%, 0%)" stroke-opacity="1" stroke-miterlimit="10" d="M 0 39.999865 L 19.917762 0.00137558 L -19.917762 0.00137558 Z M 0 39.999865 " transform="matrix(0.707107, 0.707107, 0.707107, -0.707107, 765.165043, 234.834957)"/>
<path fill="none" stroke-width="7.5" stroke-linecap="butt" stroke-linejoin="miter" stroke="rgb(0%, 0%, 0%)" stroke-opacity="1" stroke-miterlimit="10" d="M 0 40.001651 L 19.917762 -0.00236303 L -19.917762 -0.00236303 Z M 0 40.001651 " transform="matrix(0.707107, 0.707107, 0.707107, -0.707107, 789.91378, 210.08622)"/>
<path fill="none" stroke-width="7.5" stroke-linecap="butt" stroke-linejoin="miter" stroke="rgb(0%, 0%, 0%)" stroke-opacity="1" stroke-miterlimit="10" d="M 0 39.997912 L 19.917762 -0.000577357 L -19.917762 -0.000577357 Z M 0 39.997912 " transform="matrix(0.707107, 0.707107, 0.707107, -0.707107, 814.662518, 185.337482)"/>
<path fill="none" stroke-width="7.5" stroke-linecap="butt" stroke-linejoin="miter" stroke="rgb(0%, 0%, 0%)" stroke-opacity="1" stroke-miterlimit="10" d="M 0.00125212 150.000734 L 69.944745 0.00177878 L -69.947051 0.00139567 Z M 0.00125212 150.000734 " transform="matrix(0.258819, 0.965926, 0.965926, -0.258819, 828.414781, 412.001525)"/>
<path fill="none" stroke-width="7.5" stroke-linecap="butt" stroke-linejoin="miter" stroke="rgb(0%, 0%, 0%)" stroke-opacity="1" stroke-miterlimit="10" d="M -0.000581567 39.999087 L 19.919403 0.0000111017 L -19.918947 -0.0016208 Z M -0.000581567 39.999087 " transform="matrix(0.258819, 0.965926, 0.965926, -0.258819, 828.414781, 412.001525)"/>
<path fill="none" stroke-width="7.5" stroke-linecap="butt" stroke-linejoin="miter" stroke="rgb(0%, 0%, 0%)" stroke-opacity="1" stroke-miterlimit="10" d="M -0.00020327 40.000217 L 19.919781 0.00114154 L -19.918569 -0.000490367 Z M -0.00020327 40.000217 " transform="matrix(0.258819, 0.965926, 0.965926, -0.258819, 862.222185, 402.942858)"/>
<path fill="none" stroke-width="7.5" stroke-linecap="butt" stroke-linejoin="miter" stroke="rgb(0%, 0%, 0%)" stroke-opacity="1" stroke-miterlimit="10" d="M 0.000175028 40.001348 L 19.919148 -0.00150117 L -19.91819 0.000640071 Z M 0.000175028 40.001348 " transform="matrix(0.258819, 0.965926, 0.965926, -0.258819, 896.029589, 393.884192)"/>
<path fill="none" stroke-width="7.5" stroke-linecap="butt" stroke-linejoin="miter" stroke="rgb(0%, 0%, 0%)" stroke-opacity="1" stroke-miterlimit="10" d="M -0.000457686 39.998705 L 19.919527 -0.000370732 L -19.917812 0.00177051 Z M -0.000457686 39.998705 " transform="matrix(0.258819, 0.965926, 0.965926, -0.258819, 929.836993, 384.825525)"/>
<path fill="none" stroke-width="7.5" stroke-linecap="butt" stroke-linejoin="miter" stroke="rgb(0%, 0%, 0%)" stroke-opacity="1" stroke-miterlimit="10" d="M -0.00125212 150.000734 L 69.947051 0.00139567 L -69.944745 0.00177878 Z M -0.00125212 150.000734 " transform="matrix(-0.258819, 0.965926, 0.965926, 0.258819, 828.414781, 587.998475)"/>
<path fill="none" stroke-width="7.5" stroke-linecap="butt" stroke-linejoin="miter" stroke="rgb(0%, 0%, 0%)" stroke-opacity="1" stroke-miterlimit="10" d="M 0.000581567 39.999087 L 19.918947 -0.0016208 L -19.919403 0.0000111017 Z M 0.000581567 39.999087 " transform="matrix(-0.258819, 0.965926, 0.965926, 0.258819, 828.414781, 587.998475)"/>
<path fill="none" stroke-width="7.5" stroke-linecap="butt" stroke-linejoin="miter" stroke="rgb(0%, 0%, 0%)" stroke-opacity="1" stroke-miterlimit="10" d="M 0.00020327 40.000217 L 19.918569 -0.000490367 L -19.919781 0.00114154 Z M 0.00020327 40.000217 " transform="matrix(-0.258819, 0.965926, 0.965926, 0.258819, 862.222185, 597.057142)"/>
<path fill="none" stroke-width="7.5" stroke-linecap="butt" stroke-linejoin="miter" stroke="rgb(0%, 0%, 0%)" stroke-opacity="1" stroke-miterlimit="10" d="M -0.000175028 40.001348 L 19.91819 0.000640071 L -19.919148 -0.00150117 Z M -0.000175028 40.001348 " transform="matrix(-0.258819, 0.965926, 0.965926, 0.258819, 896.029589, 606.115808)"/>
<path fill="none" stroke-width="7.5" stroke-linecap="butt" stroke-linejoin="miter" stroke="rgb(0%, 0%, 0%)" stroke-opacity="1" stroke-miterlimit="10" d="M 0.000457686 39.998705 L 19.917812 0.00177051 L -19.919527 -0.000370732 Z M 0.000457686 39.998705 " transform="matrix(-0.258819, 0.965926, 0.965926, 0.258819, 929.836993, 615.174475)"/>
<path fill="none" stroke-width="7.5" stroke-linecap="butt" stroke-linejoin="miter" stroke="rgb(0%, 0%, 0%)" stroke-opacity="1" stroke-miterlimit="10" d="M 0.000000000000284217 149.997378 L 69.945566 -0.000410091 L -69.945566 -0.000410091 Z M 0.000000000000284217 149.997378 " transform="matrix(-0.707107, 0.707107, 0.707107, 0.707107, 740.416306, 740.416306)"/>
<path fill="none" stroke-width="7.5" stroke-linecap="butt" stroke-linejoin="miter" stroke="rgb(0%, 0%, 0%)" stroke-opacity="1" stroke-miterlimit="10" d="M 0.000000000000284217 39.998079 L 19.917762 -0.000410091 L -19.917762 -0.000410091 Z M 0.000000000000284217 39.998079 " transform="matrix(-0.707107, 0.707107, 0.707107, 0.707107, 740.416306, 740.416306)"/>
<path fill="none" stroke-width="7.5" stroke-linecap="butt" stroke-linejoin="miter" stroke="rgb(0%, 0%, 0%)" stroke-opacity="1" stroke-miterlimit="10" d="M 0.000000000000284217 39.999865 L 19.917762 0.00137558 L -19.917762 0.00137558 Z M 0.000000000000284217 39.999865 " transform="matrix(-0.707107, 0.707107, 0.707107, 0.707107, 765.165043, 765.165043)"/>
<path fill="none" stroke-width="7.5" stroke-linecap="butt" stroke-linejoin="miter" stroke="rgb(0%, 0%, 0%)" stroke-opacity="1" stroke-miterlimit="10" d="M 0.000000000000284217 40.001651 L 19.917762 -0.00236303 L -19.917762 -0.00236303 Z M 0.000000000000284217 40.001651 " transform="matrix(-0.707107, 0.707107, 0.707107, 0.707107, 789.91378, 789.91378)"/>
<path fill="none" stroke-width="7.5" stroke-linecap="butt" stroke-linejoin="miter" stroke="rgb(0%, 0%, 0%)" stroke-opacity="1" stroke-miterlimit="10" d="M 0.000000000000284217 39.997912 L 19.917762 -0.000577357 L -19.917762 -0.000577357 Z M 0.000000000000284217 39.997912 " transform="matrix(-0.707107, 0.707107, 0.707107, 0.707107, 814.662518, 814.662518)"/>
<path fill="none" stroke-width="7.5" stroke-linecap="butt" stroke-linejoin="miter" stroke="rgb(0%, 0%, 0%)" stroke-opacity="1" stroke-miterlimit="10" d="M 0.00125212 150.000734 L 69.944745 0.00177878 L -69.947051 0.00139567 Z M 0.00125212 150.000734 " transform="matrix(-0.965926, 0.258819, 0.258819, 0.965926, 587.998475, 828.414781)"/>
<path fill="none" stroke-width="7.5" stroke-linecap="butt" stroke-linejoin="miter" stroke="rgb(0%, 0%, 0%)" stroke-opacity="1" stroke-miterlimit="10" d="M -0.000581567 39.999087 L 19.919403 0.0000111017 L -19.918947 -0.0016208 Z M -0.000581567 39.999087 " transform="matrix(-0.965926, 0.258819, 0.258819, 0.965926, 587.998475, 828.414781)"/>
<path fill="none" stroke-width="7.5" stroke-linecap="butt" stroke-linejoin="miter" stroke="rgb(0%, 0%, 0%)" stroke-opacity="1" stroke-miterlimit="10" d="M -0.00020327 40.000217 L 19.919781 0.00114154 L -19.918569 -0.000490367 Z M -0.00020327 40.000217 " transform="matrix(-0.965926, 0.258819, 0.258819, 0.965926, 597.057142, 862.222185)"/>
<path fill="none" stroke-width="7.5" stroke-linecap="butt" stroke-linejoin="miter" stroke="rgb(0%, 0%, 0%)" stroke-opacity="1" stroke-miterlimit="10" d="M 0.000175028 40.001348 L 19.919148 -0.00150117 L -19.91819 0.000640071 Z M 0.000175028 40.001348 " transform="matrix(-0.965926, 0.258819, 0.258819, 0.965926, 606.115808, 896.029589)"/>
<path fill="none" stroke-width="7.5" stroke-linecap="butt" stroke-linejoin="miter" stroke="rgb(0%, 0%, 0%)" stroke-opacity="1" stroke-miterlimit="10" d="M -0.000457686 39.998705 L 19.919527 -0.000370732 L -19.917812 0.00177051 Z M -0.000457686 39.998705 " transform="matrix(-0.965926, 0.258819, 0.258819, 0.965926, 615.174475, 929.836993)"/>
<path fill="none" stroke-width="7.5" stroke-linecap="butt" stroke-linejoin="miter" stroke="rgb(0%, 0%, 0%)" stroke-opacity="1" stroke-miterlimit="10" d="M -0.00125212 150.000734 L 69.947051 0.00139567 L -69.944745 0.00177878 Z M -0.00125212 150.000734 " transform="matrix(-0.965926, -0.258819, -0.258819, 0.965926, 412.001525, 828.414781)"/>
<path fill="none" stroke-width="7.5" stroke-linecap="butt" stroke-linejoin="miter" stroke="rgb(0%, 0%, 0%)" stroke-opacity="1" stroke-miterlimit="10" d="M 0.000581567 39.999087 L 19.918947 -0.0016208 L -19.919403 0.0000111017 Z M 0.000581567 39.999087 " transform="matrix(-0.965926, -0.258819, -0.258819, 0.965926, 412.001525, 828.414781)"/>
<path fill="none" stroke-width="7.5" stroke-linecap="butt" stroke-linejoin="miter" stroke="rgb(0%, 0%, 0%)" stroke-opacity="1" stroke-miterlimit="10" d="M 0.00020327 40.000217 L 19.918569 -0.000490367 L -19.919781 0.00114154 Z M 0.00020327 40.000217 " transform="matrix(-0.965926, -0.258819, -0.258819, 0.965926, 402.942858, 862.222185)"/>
<path fill="none" stroke-width="7.5" stroke-linecap="butt" stroke-linejoin="miter" stroke="rgb(0%, 0%, 0%)" stroke-opacity="1" stroke-miterlimit="10" d="M -0.000175028 40.001348 L 19.91819 0.000640071 L -19.919148 -0.00150117 Z M -0.000175028 40.001348 " transform="matrix(-0.965926, -0.258819, -0.258819, 0.965926, 393.884192, 896.029589)"/>
<path fill="none" stroke-width="7.5" stroke-linecap="butt" stroke-linejoin="miter" stroke="rgb(0%, 0%, 0%)" stroke-opacity="1" stroke-miterlimit="10" d="M 0.000457686 39.998705 L 19.917812 0.00177051 L -19.919527 -0.000370732 Z M 0.000457686 39.998705 " transform="matrix(-0.965926, -0.258819, -0.258819, 0.965926, 384.825525, 929.836993)"/>
<path fill="none" stroke-width="7.5" stroke-linecap="butt" stroke-linejoin="miter" stroke="rgb(0%, 0%, 0%)" stroke-opacity="1" stroke-miterlimit="10" d="M 0.000000000000341061 149.997378 L 69.945566 -0.000410091 L -69.945566 -0.000410091 Z M 0.000000000000341061 149.997378 " transform="matrix(-0.707107, -0.707107, -0.707107, 0.707107, 259.583694, 740.416306)"/>
<path fill="none" stroke-width="7.5" stroke-linecap="butt" stroke-linejoin="miter" stroke="rgb(0%, 0%, 0%)" stroke-opacity="1" stroke-miterlimit="10" d="M 0.000000000000227374 39.998079 L 19.917762 -0.000410091 L -19.917762 -0.000410091 Z M 0.000000000000227374 39.998079 " transform="matrix(-0.707107, -0.707107, -0.707107, 0.707107, 259.583694, 740.416306)"/>
<path fill="none" stroke-width="7.5" stroke-linecap="butt" stroke-linejoin="miter" stroke="rgb(0%, 0%, 0%)" stroke-opacity="1" stroke-miterlimit="10" d="M 0.000000000000341061 39.999865 L 19.917762 0.00137558 L -19.917762 0.00137558 Z M 0.000000000000341061 39.999865 " transform="matrix(-0.707107, -0.707107, -0.707107, 0.707107, 234.834957, 765.165043)"/>
<path fill="none" stroke-width="7.5" stroke-linecap="butt" stroke-linejoin="miter" stroke="rgb(0%, 0%, 0%)" stroke-opacity="1" stroke-miterlimit="10" d="M 0.000000000000341061 40.001651 L 19.917762 -0.00236303 L -19.917762 -0.00236303 Z M 0.000000000000341061 40.001651 " transform="matrix(-0.707107, -0.707107, -0.707107, 0.707107, 210.08622, 789.91378)"/>
<path fill="none" stroke-width="7.5" stroke-linecap="butt" stroke-linejoin="miter" stroke="rgb(0%, 0%, 0%)" stroke-opacity="1" stroke-miterlimit="10" d="M 0.000000000000341061 39.997912 L 19.917762 -0.000577357 L -19.917762 -0.000577357 Z M 0.000000000000341061 39.997912 " transform="matrix(-0.707107, -0.707107, -0.707107, 0.707107, 185.337482, 814.662518)"/>
<path fill="none" stroke-width="7.5" stroke-linecap="butt" stroke-linejoin="miter" stroke="rgb(0%, 0%, 0%)" stroke-opacity="1" stroke-miterlimit="10" d="M 0.00125212 150.000734 L 69.944745 0.00177878 L -69.947051 0.00139567 Z M 0.00125212 150.000734 " transform="matrix(-0.258819, -0.965926, -0.965926, 0.258819, 171.585219, 587.998475)"/>
<path fill="none" stroke-width="7.5" stroke-linecap="butt" stroke-linejoin="miter" stroke="rgb(0%, 0%, 0%)" stroke-opacity="1" stroke-miterlimit="10" d="M -0.000581567 39.999087 L 19.919403 0.0000111017 L -19.918947 -0.0016208 Z M -0.000581567 39.999087 " transform="matrix(-0.258819, -0.965926, -0.965926, 0.258819, 171.585219, 587.998475)"/>
<path fill="none" stroke-width="7.5" stroke-linecap="butt" stroke-linejoin="miter" stroke="rgb(0%, 0%, 0%)" stroke-opacity="1" stroke-miterlimit="10" d="M -0.00020327 40.000217 L 19.919781 0.00114154 L -19.918569 -0.000490367 Z M -0.00020327 40.000217 " transform="matrix(-0.258819, -0.965926, -0.965926, 0.258819, 137.777815, 597.057142)"/>
<path fill="none" stroke-width="7.5" stroke-linecap="butt" stroke-linejoin="miter" stroke="rgb(0%, 0%, 0%)" stroke-opacity="1" stroke-miterlimit="10" d="M 0.000175028 40.001348 L 19.919148 -0.00150117 L -19.91819 0.000640071 Z M 0.000175028 40.001348 " transform="matrix(-0.258819, -0.965926, -0.965926, 0.258819, 103.970411, 606.115808)"/>
<path fill="none" stroke-width="7.5" stroke-linecap="butt" stroke-linejoin="miter" stroke="rgb(0%, 0%, 0%)" stroke-opacity="1" stroke-miterlimit="10" d="M -0.000457686 39.998705 L 19.919527 -0.000370732 L -19.917812 0.00177051 Z M -0.000457686 39.998705 " transform="matrix(-0.258819, -0.965926, -0.965926, 0.258819, 70.163007, 615.174475)"/>
<path fill="none" stroke-width="7.5" stroke-linecap="butt" stroke-linejoin="miter" stroke="rgb(0%, 0%, 0%)" stroke-opacity="1" stroke-miterlimit="10" d="M -0.00125212 150.000734 L 69.947051 0.00139567 L -69.944745 0.00177878 Z M -0.00125212 150.000734 " transform="matrix(0.258819, -0.965926, -0.965926, -0.258819, 171.585219, 412.001525)"/>
<path fill="none" stroke-width="7.5" stroke-linecap="butt" stroke-linejoin="miter" stroke="rgb(0%, 0%, 0%)" stroke-opacity="1" stroke-miterlimit="10" d="M 0.000581567 39.999087 L 19.918947 -0.0016208 L -19.919403 0.0000111017 Z M 0.000581567 39.999087 " transform="matrix(0.258819, -0.965926, -0.965926, -0.258819, 171.585219, 412.001525)"/>
<path fill="none" stroke-width="7.5" stroke-linecap="butt" stroke-linejoin="miter" stroke="rgb(0%, 0%, 0%)" stroke-opacity="1" stroke-miterlimit="10" d="M 0.00020327 40.000217 L 19.918569 -0.000490367 L -19.919781 0.00114154 Z M 0.00020327 40.000217 " transform="matrix(0.258819, -0.965926, -0.965926, -0.258819, 137.777815, 402.942858)"/>
<path fill="none" stroke-width="7.5" stroke-linecap="butt" stroke-linejoin="miter" stroke="rgb(0%, 0%, 0%)" stroke-opacity="1" stroke-miterlimit="10" d="M -0.000175028 40.001348 L 19.91819 0.000640071 L -19.919148 -0.00150117 Z M -0.000175028 40.001348 " transform="matrix(0.258819, -0.965926, -0.965926, -0.258819, 103.970411, 393.884192)"/>
<path fill="none" stroke-width="7.5" stroke-linecap="butt" stroke-linejoin="miter" stroke="rgb(0%, 0%, 0%)" stroke-opacity="1" stroke-miterlimit="10" d="M 0.000457686 39.998705 L 19.917812 0.00177051 L -19.919527 -0.000370732 Z M 0.000457686 39.998705 " transform="matrix(0.258819, -0.965926, -0.965926, -0.258819, 70.163007, 384.825525)"/>
<path fill="none" stroke-width="7.5" stroke-linecap="butt" stroke-linejoin="miter" stroke="rgb(0%, 0%, 0%)" stroke-opacity="1" stroke-miterlimit="10" d="M 0.000000000000127898 149.997378 L 69.945566 -0.000410091 L -69.945566 -0.000410091 Z M 0.000000000000127898 149.997378 " transform="matrix(0.707107, -0.707107, -0.707107, -0.707107, 259.583694, 259.583694)"/>
<path fill="none" stroke-width="7.5" stroke-linecap="butt" stroke-linejoin="miter" stroke="rgb(0%, 0%, 0%)" stroke-opacity="1" stroke-miterlimit="10" d="M 0.000000000000085265 39.998079 L 19.917762 -0.000410091 L -19.917762 -0.000410091 Z M 0.000000000000085265 39.998079 " transform="matrix(0.707107, -0.707107, -0.707107, -0.707107, 259.583694, 259.583694)"/>
<path fill="none" stroke-width="7.5" stroke-linecap="butt" stroke-linejoin="miter" stroke="rgb(0%, 0%, 0%)" stroke-opacity="1" stroke-miterlimit="10" d="M 0.000000000000085265 39.999865 L 19.917762 0.00137558 L -19.917762 0.00137558 Z M 0.000000000000085265 39.999865 " transform="matrix(0.707107, -0.707107, -0.707107, -0.707107, 234.834957, 234.834957)"/>
<path fill="none" stroke-width="7.5" stroke-linecap="butt" stroke-linejoin="miter" stroke="rgb(0%, 0%, 0%)" stroke-opacity="1" stroke-miterlimit="10" d="M 0.000000000000085265 40.001651 L 19.917762 -0.00236303 L -19.917762 -0.00236303 Z M 0.000000000000085265 40.001651 " transform="matrix(0.707107, -0.707107, -0.707107, -0.707107, 210.08622, 210.08622)"/>
<path fill="none" stroke-width="7.5" stroke-linecap="butt" stroke-linejoin="miter" stroke="rgb(0%, 0%, 0%)" stroke-opacity="1" stroke-miterlimit="10" d="M 0.000000000000127898 39.997912 L 19.917762 -0.000577357 L -19.917762 -0.000577357 Z M 0.000000000000127898 39.997912 " transform="matrix(0.707107, -0.707107, -0.707107, -0.707107, 185.337482, 185.337482)"/>
<path fill="none" stroke-width="11" stroke-linecap="butt" stroke-linejoin="miter" stroke="rgb(0%, 0%, 0%)" stroke-opacity="1" stroke-miterlimit="10" d="M 119.998958 0.000542104 C 119.998983 66.274024 66.272869 119.998914 -0.00061249 119.998939 C -66.274094 119.998965 -119.998984 66.27285 -119.99901 -0.00063135 C -119.999035 -66.274113 -66.272921 -119.999003 0.000560964 -119.999028 C 66.274042 -119.999054 119.998933 -66.272939 119.998958 0.000542104 " transform="matrix(0.866025, -0.5, -0.5, -0.866025, 397.5, 322.464792)"/>
<path fill="none" stroke-width="11" stroke-linecap="butt" stroke-linejoin="miter" stroke="rgb(0%, 0%, 0%)" stroke-opacity="1" stroke-miterlimit="10" d="M 49.999551 0.000199847 C 50.001372 27.612729 27.614212 50.001094 -0.000270233 49.999532 C -27.6128 50.001353 -50.001164 27.614193 -49.999602 -0.000289092 C -50.001424 -27.612818 -27.614264 -50.001183 0.000218707 -49.999621 C 27.614701 -49.998059 50.001113 -27.614283 49.999551 0.000199847 " transform="matrix(0.866025, -0.5, -0.5, -0.866025, 397.5, 322.464792)"/>
<path fill="none" stroke-width="8" stroke-linecap="butt" stroke-linejoin="miter" stroke="rgb(0%, 0%, 0%)" stroke-opacity="1" stroke-miterlimit="10" d="M 99.999127 0.000444317 C 99.999387 55.227456 55.22845 100.002232 -0.000514702 99.999109 C -55.227527 99.999368 -99.998919 55.226478 -99.999179 -0.000533562 " transform="matrix(0.866025, -0.5, -0.5, -0.866025, 397.5, 322.464792)"/>
<path fill="none" stroke-width="8" stroke-linecap="butt" stroke-linejoin="miter" stroke="rgb(0%, 0%, 0%)" stroke-opacity="1" stroke-miterlimit="10" d="M -0.000330692 -55.000573 L -31.754775 -0.000883293 L 31.753576 -0.00119381 Z M -0.000330692 -55.000573 " transform="matrix(0.866025, -0.5, -0.5, -0.866025, 388.75, 307.309348)"/>
<path fill="none" stroke-width="8" stroke-linecap="butt" stroke-linejoin="miter" stroke="rgb(0%, 0%, 0%)" stroke-opacity="1" stroke-miterlimit="10" d="M 15.50023 56.847186 L 15.499986 106.846763 M 15.500377 26.84744 L 95.499925 73.035723 M 15.500377 26.84744 L -64.49872 73.03494 M 31.001129 0.000218537 L 111.000678 46.188501 M 31.001129 0.000218537 L 31.001667 -109.99885 M 0.000376954 0.000652903 L -79.99872 46.188153 M 0.000376954 0.000652903 L 0.000914787 -109.998416 " transform="matrix(0.866025, -0.5, -0.5, -0.866025, 388.75, 338.309348)"/>
<path fill="none" stroke-width="11" stroke-linecap="butt" stroke-linejoin="miter" stroke="rgb(0%, 0%, 0%)" stroke-opacity="1" stroke-miterlimit="10" d="M 119.99901 -0.00063135 C 119.998984 66.27285 66.274094 119.998965 0.00061249 119.998939 C -66.272869 119.998914 -119.998983 66.274024 -119.998958 0.000542104 C -119.998933 -66.272939 -66.274042 -119.999054 -0.000560964 -119.999028 C 66.272921 -119.999003 119.999035 -66.274113 119.99901 -0.00063135 " transform="matrix(0.866025, 0.5, 0.5, -0.866025, 602.5, 322.464792)"/>
<path fill="none" stroke-width="11" stroke-linecap="butt" stroke-linejoin="miter" stroke="rgb(0%, 0%, 0%)" stroke-opacity="1" stroke-miterlimit="10" d="M 49.999602 -0.000289092 C 50.001164 27.614193 27.6128 50.001353 0.000270233 49.999532 C -27.614212 50.001094 -50.001372 27.612729 -49.999551 0.000199847 C -50.001113 -27.614283 -27.614701 -49.998059 -0.000218707 -49.999621 C 27.614264 -50.001183 50.001424 -27.612818 49.999602 -0.000289092 " transform="matrix(0.866025, 0.5, 0.5, -0.866025, 602.5, 322.464792)"/>
<path fill="none" stroke-width="8" stroke-linecap="butt" stroke-linejoin="miter" stroke="rgb(0%, 0%, 0%)" stroke-opacity="1" stroke-miterlimit="10" d="M 99.999179 -0.000533562 C 99.998919 55.226478 55.227527 99.999368 0.000514702 99.999109 C -55.22845 100.002232 -99.999387 55.227456 -99.999127 0.000444317 " transform="matrix(0.866025, 0.5, 0.5, -0.866025, 602.5, 322.464792)"/>
<path fill="none" stroke-width="8" stroke-linecap="butt" stroke-linejoin="miter" stroke="rgb(0%, 0%, 0%)" stroke-opacity="1" stroke-miterlimit="10" d="M 0.000330692 -55.000573 L -31.753576 -0.00119381 L 31.754775 -0.000883293 Z M 0.000330692 -55.000573 " transform="matrix(0.866025, 0.5, 0.5, -0.866025, 611.25, 307.309348)"/>
<path fill="none" stroke-width="8" stroke-linecap="butt" stroke-linejoin="miter" stroke="rgb(0%, 0%, 0%)" stroke-opacity="1" stroke-miterlimit="10" d="M 15.49977 56.847186 L 15.500014 106.846763 M 15.499623 26.84744 L 95.49872 73.03494 M 15.499623 26.84744 L -64.499925 73.035723 M 30.999623 0.000652903 L 110.99872 46.188153 M 30.999623 0.000652903 L 30.999085 -109.998416 M -0.0011293 0.000218537 L -80.000678 46.188501 M -0.0011293 0.000218537 L -0.00166713 -109.99885 " transform="matrix(0.866025, 0.5, 0.5, -0.866025, 584.403212, 322.809348)"/>
<path fill="none" stroke-width="11" stroke-linecap="butt" stroke-linejoin="miter" stroke="rgb(0%, 0%, 0%)" stroke-opacity="1" stroke-miterlimit="10" d="M 120 0 C 120 66.273438 66.273437 120 0 120 C -66.273438 120 -120 66.273438 -120 0 C -120 -66.273438 -66.273438 -120 0 -120 C 66.273437 -120 120 -66.273438 120 0 " transform="matrix(0.000000000000000061, 1, 1, -0.000000000000000061, 705, 500)"/>
<path fill="none" stroke-width="11" stroke-linecap="butt" stroke-linejoin="miter" stroke="rgb(0%, 0%, 0%)" stroke-opacity="1" stroke-miterlimit="10" d="M 50 0 C 50 27.613281 27.613281 50 0 50 C -27.613281 50 -50 27.613281 -50 0 C -50 -27.613281 -27.613281 -50 0 -50 C 27.613281 -50 50 -27.613281 50 0 " transform="matrix(0.000000000000000061, 1, 1, -0.000000000000000061, 705, 500)"/>
<path fill="none" stroke-width="8" stroke-linecap="butt" stroke-linejoin="miter" stroke="rgb(0%, 0%, 0%)" stroke-opacity="1" stroke-miterlimit="10" d="M 100 0 C 100 55.226562 55.226562 100 0 100 C -55.226562 100 -100 55.226562 -100 0 " transform="matrix(0.000000000000000061, 1, 1, -0.000000000000000061, 705, 500)"/>
<path fill="none" stroke-width="8" stroke-linecap="butt" stroke-linejoin="miter" stroke="rgb(0%, 0%, 0%)" stroke-opacity="1" stroke-miterlimit="10" d="M 0 -55 L -31.753906 0 L 31.753906 0 Z M 0 -55 " transform="matrix(0.000000000000000061, 1, 1, -0.000000000000000061, 722.5, 500)"/>
<path fill="none" stroke-width="8" stroke-linecap="butt" stroke-linejoin="miter" stroke="rgb(0%, 0%, 0%)" stroke-opacity="1" stroke-miterlimit="10" d="M 15.5 56.846788 L 15.5 106.846788 M 15.5 26.846788 L 95.5 73.034288 M 15.5 26.846788 L -64.5 73.034288 M 31 -0.000868733 L 111 46.186631 M 31 -0.000868733 L 31 -110.000869 M 0.000000000000056843 -0.000868733 L -80 46.186631 M 0.000000000000056843 -0.000868733 L 0.000000000000056843 -110.000869 " transform="matrix(0.000000000000000061, 1, 1, -0.000000000000000061, 695.653212, 484.5)"/>
<path fill="none" stroke-width="11" stroke-linecap="butt" stroke-linejoin="miter" stroke="rgb(0%, 0%, 0%)" stroke-opacity="1" stroke-miterlimit="10" d="M 119.998958 0.000542104 C 119.998983 66.274024 66.272869 119.998914 -0.00061249 119.998939 C -66.274094 119.998965 -119.998984 66.27285 -119.99901 -0.00063135 C -119.999035 -66.274113 -66.272921 -119.999003 0.000560964 -119.999028 C 66.274042 -119.999054 119.998933 -66.272939 119.998958 0.000542104 " transform="matrix(-0.866025, 0.5, 0.5, 0.866025, 602.5, 677.535208)"/>
<path fill="none" stroke-width="11" stroke-linecap="butt" stroke-linejoin="miter" stroke="rgb(0%, 0%, 0%)" stroke-opacity="1" stroke-miterlimit="10" d="M 49.999551 0.000199847 C 50.001372 27.612729 27.614212 50.001094 -0.000270233 49.999532 C -27.6128 50.001353 -50.001164 27.614193 -49.999602 -0.000289092 C -50.001424 -27.612818 -27.614264 -50.001183 0.000218707 -49.999621 C 27.614701 -49.998059 50.001113 -27.614283 49.999551 0.000199847 " transform="matrix(-0.866025, 0.5, 0.5, 0.866025, 602.5, 677.535208)"/>
<path fill="none" stroke-width="8" stroke-linecap="butt" stroke-linejoin="miter" stroke="rgb(0%, 0%, 0%)" stroke-opacity="1" stroke-miterlimit="10" d="M 99.999127 0.000444317 C 99.999387 55.227456 55.22845 100.002232 -0.000514702 99.999109 C -55.227527 99.999368 -99.998919 55.226478 -99.999179 -0.000533562 " transform="matrix(-0.866025, 0.5, 0.5, 0.866025, 602.5, 677.535208)"/>
<path fill="none" stroke-width="8" stroke-linecap="butt" stroke-linejoin="miter" stroke="rgb(0%, 0%, 0%)" stroke-opacity="1" stroke-miterlimit="10" d="M -0.000330692 -55.000573 L -31.754775 -0.000883293 L 31.753576 -0.00119381 Z M -0.000330692 -55.000573 " transform="matrix(-0.866025, 0.5, 0.5, 0.866025, 611.25, 692.690652)"/>
<path fill="none" stroke-width="8" stroke-linecap="butt" stroke-linejoin="miter" stroke="rgb(0%, 0%, 0%)" stroke-opacity="1" stroke-miterlimit="10" d="M 15.50023 56.847186 L 15.499986 106.846763 M 15.500377 26.84744 L 95.499925 73.035723 M 15.500377 26.84744 L -64.49872 73.03494 M 31.001129 0.000218537 L 111.000678 46.188501 M 31.001129 0.000218537 L 31.001667 -109.99885 M 0.000376954 0.000652903 L -79.99872 46.188153 M 0.000376954 0.000652903 L 0.000914787 -109.998416 " transform="matrix(-0.866025, 0.5, 0.5, 0.866025, 611.25, 661.690652)"/>
<path fill="none" stroke-width="11" stroke-linecap="butt" stroke-linejoin="miter" stroke="rgb(0%, 0%, 0%)" stroke-opacity="1" stroke-miterlimit="10" d="M 119.99901 -0.00063135 C 119.998984 66.27285 66.274094 119.998965 0.00061249 119.998939 C -66.272869 119.998914 -119.998983 66.274024 -119.998958 0.000542104 C -119.998933 -66.272939 -66.274042 -119.999054 -0.000560964 -119.999028 C 66.272921 -119.999003 119.999035 -66.274113 119.99901 -0.00063135 " transform="matrix(-0.866025, -0.5, -0.5, 0.866025, 397.5, 677.535208)"/>
<path fill="none" stroke-width="11" stroke-linecap="butt" stroke-linejoin="miter" stroke="rgb(0%, 0%, 0%)" stroke-opacity="1" stroke-miterlimit="10" d="M 49.999602 -0.000289092 C 50.001164 27.614193 27.6128 50.001353 0.000270233 49.999532 C -27.614212 50.001094 -50.001372 27.612729 -49.999551 0.000199847 C -50.001113 -27.614283 -27.614701 -49.998059 -0.000218707 -49.999621 C 27.614264 -50.001183 50.001424 -27.612818 49.999602 -0.000289092 " transform="matrix(-0.866025, -0.5, -0.5, 0.866025, 397.5, 677.535208)"/>
<path fill="none" stroke-width="8" stroke-linecap="butt" stroke-linejoin="miter" stroke="rgb(0%, 0%, 0%)" stroke-opacity="1" stroke-miterlimit="10" d="M 99.999179 -0.000533562 C 99.998919 55.226478 55.227527 99.999368 0.000514702 99.999109 C -55.22845 100.002232 -99.999387 55.227456 -99.999127 0.000444317 " transform="matrix(-0.866025, -0.5, -0.5, 0.866025, 397.5, 677.535208)"/>
<path fill="none" stroke-width="8" stroke-linecap="butt" stroke-linejoin="miter" stroke="rgb(0%, 0%, 0%)" stroke-opacity="1" stroke-miterlimit="10" d="M 0.000330692 -55.000573 L -31.753576 -0.00119381 L 31.754775 -0.000883293 Z M 0.000330692 -55.000573 " transform="matrix(-0.866025, -0.5, -0.5, 0.866025, 388.75, 692.690652)"/>
<path fill="none" stroke-width="8" stroke-linecap="butt" stroke-linejoin="miter" stroke="rgb(0%, 0%, 0%)" stroke-opacity="1" stroke-miterlimit="10" d="M 15.49977 56.847186 L 15.500014 106.846763 M 15.499623 26.84744 L 95.49872 73.03494 M 15.499623 26.84744 L -64.499925 73.035723 M 30.999623 0.000652903 L 110.99872 46.188153 M 30.999623 0.000652903 L 30.999085 -109.998416 M -0.0011293 0.000218537 L -80.000678 46.188501 M -0.0011293 0.000218537 L -0.00166713 -109.99885 " transform="matrix(-0.866025, -0.5, -0.5, 0.866025, 415.596788, 677.190652)"/>
<path fill="none" stroke-width="11" stroke-linecap="butt" stroke-linejoin="miter" stroke="rgb(0%, 0%, 0%)" stroke-opacity="1" stroke-miterlimit="10" d="M 120 -0.000000000000113687 C 120 66.273437 66.273438 120 0.000000000000341061 120 C -66.273437 120 -120 66.273438 -120 0.00000000000017053 C -120 -66.273437 -66.273437 -120 0.000000000000056843 -120 C 66.273438 -120 120 -66.273438 120 -0.000000000000113687 " transform="matrix(-0.000000000000001072, -1, -1, 0.000000000000001072, 295, 500)"/>
<path fill="none" stroke-width="11" stroke-linecap="butt" stroke-linejoin="miter" stroke="rgb(0%, 0%, 0%)" stroke-opacity="1" stroke-miterlimit="10" d="M 50 -0.000000000000056843 C 50 27.613281 27.613281 50 0.000000000000227374 50 C -27.613281 50 -50 27.613281 -50 0.000000000000056843 C -50 -27.613281 -27.613281 -50 0.000000000000113687 -50 C 27.613281 -50 50 -27.613281 50 -0.000000000000056843 " transform="matrix(-0.000000000000001072, -1, -1, 0.000000000000001072, 295, 500)"/>
<path fill="none" stroke-width="8" stroke-linecap="butt" stroke-linejoin="miter" stroke="rgb(0%, 0%, 0%)" stroke-opacity="1" stroke-miterlimit="10" d="M 100 -0.000000000000056843 C 100 55.226562 55.226563 100 0.000000000000284217 100 C -55.226562 100 -100 55.226563 -100 0.000000000000113687 " transform="matrix(-0.000000000000001072, -1, -1, 0.000000000000001072, 295, 500)"/>
<path fill="none" stroke-width="8" stroke-linecap="butt" stroke-linejoin="miter" stroke="rgb(0%, 0%, 0%)" stroke-opacity="1" stroke-miterlimit="10" d="M 0.00000000000017053 -55 L -31.753906 0.000000000000056843 L 31.753906 0 Z M 0.00000000000017053 -55 " transform="matrix(-0.000000000000001072, -1, -1, 0.000000000000001072, 277.5, 500)"/>
<path fill="none" stroke-width="8" stroke-linecap="butt" stroke-linejoin="miter" stroke="rgb(0%, 0%, 0%)" stroke-opacity="1" stroke-miterlimit="10" d="M 15.5 56.846788 L 15.5 106.846788 M 15.5 26.846788 L 95.5 73.034288 M 15.5 26.846788 L -64.5 73.034288 M 31 -0.000868733 L 111 46.186631 M 31 -0.000868733 L 31 -110.000869 M 0.000000000000113687 -0.000868733 L -80 46.186631 M 0.000000000000113687 -0.000868733 L 0 -110.000869 " transform="matrix(-0.000000000000001072, -1, -1, 0.000000000000001072, 304.346788, 515.5)"/>
</g>
</g>
</defs>
<g filter="url(#filter-0)" transform="translate(-100, -100)">
<rect x="0" y="0" width="1200" height="1200" fill="rgb(0%, 0%, 0%)" fill-opacity="1"/>
</g>
<path fill="none" stroke-width="15" stroke-linecap="butt" stroke-linejoin="miter" stroke="rgb(0%, 0%, 0%)" stroke-opacity="1" stroke-miterlimit="10" d="M 32 0 C 32 17.671875 17.671875 32 0 32 C -17.671875 32 -32 17.671875 -32 0 C -32 -17.671875 -17.671875 -32 0 -32 C 17.671875 -32 32 -17.671875 32 0 M 80 0 L 40 -69.28125 L -40 -69.28125 L -80 0 L -40 69.28125 L 40 69.28125 L 80 0 L 480 0 M 0 69.28125 L 360 69.28125 L 480 0 L 360 -69.28125 L 0 -69.28125 M 40 69.28125 L 160 0 L 40 -69.28125 M 120 69.28125 L 240 0 L 120 -69.28125 M 200 69.28125 L 320 0 L 200 -69.28125 M 280 69.28125 L 400 0 L 280 -69.28125 " transform="matrix(1, 0, 0, -1, 500, 500)"/>
</svg>
